<svg xmlns="http://www.w3.org/2000/svg" width="399.218" height="119.979" viewBox="0 0 399.218 119.979"><g transform="translate(-425.946 -1512.224)"><path d="M37.675-53.293q17.4,0,17.4,13.837,0,8.631-8.152,13.083T23.7-21.783q-.274,4.932-.274,7.809,0,6.165,2.808,9.11a9.34,9.34,0,0,0,7.056,2.946,17.952,17.952,0,0,0,7.74-1.644,17.383,17.383,0,0,0,5.549-3.9,31.265,31.265,0,0,0,3.562-4.727q2.74-4.521,2.74-5.754l2.466,1.1a20.6,20.6,0,0,1-2.466,5.823,25.184,25.184,0,0,1-4.521,5.959A23.941,23.941,0,0,1,41.1-.753,27.671,27.671,0,0,1,30.414,1.233q-11.1,0-16.782-5.275T7.946-18.5q0-16.3,8.083-25.551T37.675-53.293ZM51.649-39.456a10.69,10.69,0,0,0-2.672-7.467q-2.671-2.945-7.946-2.945t-10.275,6.3q-5,6.3-6.645,18.632Q51.649-25.071,51.649-39.456Zm55.9,54.389a11.2,11.2,0,0,0,8.494-3.836l1.918,1.644Q114.669,17.4,107.545,17.4a28.975,28.975,0,0,1-6.165-.685q-9.316,8.494-23.838,8.494-8.631,0-13.357-2.946T59.458,14.59A9.922,9.922,0,0,1,62.4,7.056q2.945-2.809,10.481-2.809t19.865,6.165L97-12.33Q90.831-.959,81.1-.959q-18.632,0-18.632-18.358,0-15.344,7.741-24.66a24.6,24.6,0,0,1,19.8-9.316q6.987,0,10.823,4.247a14.563,14.563,0,0,1,2.192,3.7l1.233-6.713a94.5,94.5,0,0,0,14.8-.822l1.781-.411L111.792-2.74q-2.055,10.686-8.22,17.262A17.7,17.7,0,0,0,107.545,14.933Zm-29.592-30q0,6.3,1.233,8.425t4.658,2.124q3.425,0,6.987-3.7a28.3,28.3,0,0,0,5.137-6.918,63.915,63.915,0,0,0,2.672-6.233l2.877-15.755v-.959q0-12.6-11.508-12.6-4.384,0-8.22,11.919A77.01,77.01,0,0,0,77.953-15.07Zm-.959,37.538q10.96,0,14.8-9.453l-1.918-.959q-1.644-.822-1.987-1.028t-1.849-.89a19.95,19.95,0,0,0-2.192-.891q-.685-.206-2.124-.754a17.067,17.067,0,0,0-2.4-.753q-.959-.206-2.192-.48A33.018,33.018,0,0,0,71.1,6.85a9.9,9.9,0,0,0-6.37,1.918,6.766,6.766,0,0,0-2.4,5.617q0,3.7,3.973,5.891T76.994,22.468Zm74.254-27.4a17.975,17.975,0,0,1-4.863,4.247,14.982,14.982,0,0,1-8.015,1.918,11.893,11.893,0,0,1-8.357-3.151q-3.425-3.151-3.425-8.905,0-1.1.274-3.562l8.9-49.32q2.466-13.563,6.782-19.317a13.606,13.606,0,0,1,11.439-5.754,10.339,10.339,0,0,1,8.151,3.7q3.22,3.7,3.22,11.234t-5.823,21.509q-5.823,13.974-5.822,20.413h-2.466q0-7.261,5.754-20.755t5.754-21.577a15.518,15.518,0,0,0-2.261-8.494q-2.261-3.562-5.548-3.562-.137,3.562-4.727,31.989T141.11-1.507q3.836,0,7.124-3.973a25.772,25.772,0,0,0,4.658-7.946l1.507-4.11,2.466,1.1a28.443,28.443,0,0,1-2.124,5.549A33.149,33.149,0,0,1,151.248-4.932Zm61.376,6.165q-12.056,0-13.152-10.549Q193.444,1.233,184.265,1.233t-14.59-5.549q-5.411-5.548-5.411-15.549,0-15.618,7.672-24.523a25,25,0,0,1,19.865-8.9q10,0,13.289,9.453.685-4.11,1.507-8.22a100.271,100.271,0,0,0,15.07-.822l1.781-.411L213.994-1.507a9.751,9.751,0,0,0,6.85-3.836L222.9-3.7A12.838,12.838,0,0,1,212.624,1.233Zm-32.88-14.111q0,6.165,1.576,8.562a5.411,5.411,0,0,0,4.864,2.4q3.288,0,6.713-3.562a34.374,34.374,0,0,0,7.261-11.782q.411-1.781,1.576-8.562t1.986-11.166a19.238,19.238,0,0,0-2.877-9.042q-2.466-3.836-6.165-3.836-6.713,0-10.823,11.988A76.552,76.552,0,0,0,179.744-12.878ZM278.11,1.233q-12.056,0-13.152-10.275Q258.93,1.233,249.614,1.233T235.366-4.042q-4.932-5.275-4.932-14.454,0-16.166,7.672-25.482a24.541,24.541,0,0,1,19.865-9.316q6.987,0,10.823,4.247a15.564,15.564,0,0,1,2.055,3.288l7.4-40.278A9.751,9.751,0,0,0,271.4-82.2l-2.055-1.644a12.906,12.906,0,0,1,10.344-4.932q6.234,0,9.658,3.151t3.425,8.9q0,1.1-.274,3.562Q285.782-35.483,279.48-1.507a9.751,9.751,0,0,0,6.85-3.836L288.385-3.7A12.838,12.838,0,0,1,278.11,1.233Zm-32.2-14.111q0,6.3,1.3,8.631a4.374,4.374,0,0,0,4.11,2.329,9.005,9.005,0,0,0,5.411-1.918,16.379,16.379,0,0,0,4.384-4.932A48.955,48.955,0,0,0,265.78-17.4l3.973-21.646a15.124,15.124,0,0,0-2.877-8.014q-2.6-3.631-8.9-3.631-4.384,0-8.22,12.878A87.183,87.183,0,0,0,245.915-12.878ZM317.429,1.233q-10.549,0-16.029-5.275a17.667,17.667,0,0,1-5.48-13.289,56.544,56.544,0,0,1,1.439-13.7,38.5,38.5,0,0,1,4.726-10.96,21.979,21.979,0,0,1,9.933-8.289q6.644-3.014,16.577-3.014t15.481,5.275q5.549,5.274,5.549,14.453,0,15.618-8.289,25.208T317.429,1.233ZM311.4-12.878q0,10.96,6.371,10.96t11.371-11.028q5-11.029,5-26.236,0-11.508-6.233-11.508T316.539-40.209Q311.4-29.729,311.4-12.878Zm45.758-35.483A12.906,12.906,0,0,1,367.5-53.293q6.234,0,9.659,3.151t3.425,8.9v.822q6.165-12.878,16.029-12.878,10.549,0,10.549,10.96a18.886,18.886,0,0,1-3.014,9.59q-3.014,5.069-6.028,9.658t-3.014,8.152H391.82q0-5.069,5.891-13.7T403.6-41.99q0-4.727-1.849-6.439a7.8,7.8,0,0,0-5.48-1.712,10.645,10.645,0,0,0-7.124,3.151,25.6,25.6,0,0,0-5.823,7.946A62.731,62.731,0,0,0,378.394-27.4v.137L373.462,0h-16.44l9.042-50.553a9.751,9.751,0,0,0-6.85,3.836Z" transform="translate(418 1601)" fill="#333"/><path d="M2.282-4.852A4.925,4.925,0,0,0,2.959-2.18,2.373,2.373,0,0,0,5.13-1.1a2.286,2.286,0,0,0,1.906-1,4.71,4.71,0,0,0,.747-2.862,4.232,4.232,0,0,0-.77-2.788,2.4,2.4,0,0,0-1.9-.9,2.511,2.511,0,0,0-2.046.965A4.419,4.419,0,0,0,2.282-4.852ZM4.8-10.112a3.535,3.535,0,0,1,1.911.482,4.489,4.489,0,0,1,1.011.974v-5.019h1.6V0h-1.5V-1.382A3.613,3.613,0,0,1,6.438-.056,3.957,3.957,0,0,1,4.611.353a3.7,3.7,0,0,1-2.876-1.4A5.459,5.459,0,0,1,.52-4.759,6.414,6.414,0,0,1,1.628-8.521,3.63,3.63,0,0,1,4.8-10.112Zm11.133-.046a4.532,4.532,0,0,1,2.05.5,3.781,3.781,0,0,1,1.512,1.285,4.433,4.433,0,0,1,.668,1.753,11.472,11.472,0,0,1,.148,2.189H13.025a4.25,4.25,0,0,0,.714,2.426,2.392,2.392,0,0,0,2.069.914A2.675,2.675,0,0,0,17.9-1.958a2.909,2.909,0,0,0,.631-1.16h1.642a3.458,3.458,0,0,1-.431,1.22,4.339,4.339,0,0,1-.821,1.1,3.892,3.892,0,0,1-1.883,1,5.721,5.721,0,0,1-1.364.148A4.184,4.184,0,0,1,12.524-1a5.252,5.252,0,0,1-1.29-3.781,5.711,5.711,0,0,1,1.3-3.887A4.285,4.285,0,0,1,15.929-10.159Zm2.663,4.4A4.326,4.326,0,0,0,18.119-7.5,2.425,2.425,0,0,0,15.827-8.7a2.54,2.54,0,0,0-1.93.83,3.137,3.137,0,0,0-.826,2.111Zm4.759,2.644a2.428,2.428,0,0,0,.417,1.28,2.624,2.624,0,0,0,2.189.807,3.229,3.229,0,0,0,1.633-.4A1.34,1.34,0,0,0,28.3-2.681a1.067,1.067,0,0,0-.566-.974A6.728,6.728,0,0,0,26.3-4.128l-1.327-.334A6.472,6.472,0,0,1,23.1-5.167a2.107,2.107,0,0,1-1.076-1.874A2.863,2.863,0,0,1,23.04-9.324a4.053,4.053,0,0,1,2.732-.872A3.793,3.793,0,0,1,29.01-8.878a2.859,2.859,0,0,1,.6,1.8H28.036a1.932,1.932,0,0,0-.4-1.03,2.544,2.544,0,0,0-1.995-.659,2.384,2.384,0,0,0-1.433.362,1.134,1.134,0,0,0-.487.956,1.176,1.176,0,0,0,.64,1.039A3.847,3.847,0,0,0,25.457-6l1.1.269a8.536,8.536,0,0,1,2.412.844,2.235,2.235,0,0,1,.974,2.013A3.068,3.068,0,0,1,28.941-.584,4.285,4.285,0,0,1,25.875.38a4.114,4.114,0,0,1-3.14-1.007,3.807,3.807,0,0,1-.988-2.491ZM31.858-9.89h1.7V0h-1.7Zm0-3.739h1.7v1.893h-1.7Zm7.728,3.516a3.621,3.621,0,0,1,2.041.575,4.584,4.584,0,0,1,.965.946V-9.843h1.54V-.807a6.664,6.664,0,0,1-.557,2.987Q42.537,4.2,39.651,4.2a4.814,4.814,0,0,1-2.7-.719,2.8,2.8,0,0,1-1.225-2.25h1.7a1.889,1.889,0,0,0,.482,1.03,2.46,2.46,0,0,0,1.781.557A2.451,2.451,0,0,0,42.2,1.466a7.628,7.628,0,0,0,.325-2.848A3.277,3.277,0,0,1,41.321-.25a4.012,4.012,0,0,1-1.865.371,3.981,3.981,0,0,1-2.825-1.146,5.039,5.039,0,0,1-1.211-3.79,5.739,5.739,0,0,1,1.22-3.9A3.772,3.772,0,0,1,39.586-10.112Zm3.006,5.1a4.142,4.142,0,0,0-.761-2.737,2.437,2.437,0,0,0-1.939-.891A2.394,2.394,0,0,0,37.48-6.986a6.475,6.475,0,0,0-.343,2.31,4.1,4.1,0,0,0,.682,2.556,2.2,2.2,0,0,0,1.832.877,2.572,2.572,0,0,0,2.533-1.624A5.236,5.236,0,0,0,42.592-5.01Zm4.054-4.926h1.586v1.41a4.45,4.45,0,0,1,1.494-1.252,3.983,3.983,0,0,1,1.753-.38,2.891,2.891,0,0,1,2.857,1.475,5.238,5.238,0,0,1,.408,2.31V0h-1.7V-6.262a3.391,3.391,0,0,0-.269-1.466,1.631,1.631,0,0,0-1.614-.928,3.287,3.287,0,0,0-.974.121,2.509,2.509,0,0,0-1.206.816A2.458,2.458,0,0,0,48.442-6.7a6.838,6.838,0,0,0-.125,1.5V0h-1.67ZM63.772-2.644A1.375,1.375,0,0,0,64.3-1.5a1.961,1.961,0,0,0,1.252.417,3.808,3.808,0,0,0,1.707-.408,2.3,2.3,0,0,0,1.392-2.217V-5.056a2.857,2.857,0,0,1-.789.325,6.72,6.72,0,0,1-.946.186l-1.011.13a3.868,3.868,0,0,0-1.364.38A1.482,1.482,0,0,0,63.772-2.644Zm4.045-3.377a.907.907,0,0,0,.77-.482,1.468,1.468,0,0,0,.111-.64,1.356,1.356,0,0,0-.608-1.239,3.26,3.26,0,0,0-1.74-.385,2.21,2.21,0,0,0-1.855.705,2.32,2.32,0,0,0-.4,1.16H62.539a2.869,2.869,0,0,1,1.192-2.556,4.895,4.895,0,0,1,2.658-.719,5.408,5.408,0,0,1,2.848.668,2.266,2.266,0,0,1,1.085,2.078v5.724a.733.733,0,0,0,.107.417.515.515,0,0,0,.45.158q.111,0,.25-.014t.3-.042V.046a4.651,4.651,0,0,1-.594.139,4.339,4.339,0,0,1-.557.028A1.373,1.373,0,0,1,69.023-.4a2.363,2.363,0,0,1-.288-.918A4.249,4.249,0,0,1,67.27-.158a4.534,4.534,0,0,1-2.106.492,3.132,3.132,0,0,1-2.259-.84,2.789,2.789,0,0,1-.877-2.1,2.707,2.707,0,0,1,.863-2.143,4.105,4.105,0,0,1,2.264-.937Zm5.242-3.915h1.586v1.41a4.45,4.45,0,0,1,1.494-1.252,3.983,3.983,0,0,1,1.753-.38A2.891,2.891,0,0,1,80.75-8.684a5.238,5.238,0,0,1,.408,2.31V0h-1.7V-6.262a3.391,3.391,0,0,0-.269-1.466,1.631,1.631,0,0,0-1.614-.928,3.287,3.287,0,0,0-.974.121,2.509,2.509,0,0,0-1.206.816A2.458,2.458,0,0,0,74.854-6.7a6.838,6.838,0,0,0-.125,1.5V0h-1.67ZM84.684-4.852a4.925,4.925,0,0,0,.677,2.672A2.373,2.373,0,0,0,87.532-1.1a2.286,2.286,0,0,0,1.906-1,4.71,4.71,0,0,0,.747-2.862,4.232,4.232,0,0,0-.77-2.788,2.4,2.4,0,0,0-1.9-.9,2.511,2.511,0,0,0-2.046.965A4.419,4.419,0,0,0,84.684-4.852Zm2.514-5.26a3.535,3.535,0,0,1,1.911.482,4.489,4.489,0,0,1,1.011.974v-5.019h1.6V0h-1.5V-1.382A3.613,3.613,0,0,1,88.84-.056a3.957,3.957,0,0,1-1.828.408,3.7,3.7,0,0,1-2.876-1.4,5.459,5.459,0,0,1-1.215-3.716A6.414,6.414,0,0,1,84.03-8.521,3.63,3.63,0,0,1,87.2-10.112Zm13.332,5.26a4.925,4.925,0,0,0,.677,2.672A2.373,2.373,0,0,0,103.377-1.1a2.286,2.286,0,0,0,1.906-1,4.71,4.71,0,0,0,.747-2.862,4.232,4.232,0,0,0-.77-2.788,2.4,2.4,0,0,0-1.9-.9,2.511,2.511,0,0,0-2.046.965A4.419,4.419,0,0,0,100.529-4.852Zm2.514-5.26a3.535,3.535,0,0,1,1.911.482,4.489,4.489,0,0,1,1.011.974v-5.019h1.6V0h-1.5V-1.382a3.613,3.613,0,0,1-1.382,1.327,3.957,3.957,0,0,1-1.828.408,3.7,3.7,0,0,1-2.876-1.4,5.459,5.459,0,0,1-1.215-3.716,6.414,6.414,0,0,1,1.109-3.762A3.63,3.63,0,0,1,103.043-10.112Zm11.133-.046a4.532,4.532,0,0,1,2.05.5,3.781,3.781,0,0,1,1.512,1.285,4.433,4.433,0,0,1,.668,1.753,11.472,11.472,0,0,1,.148,2.189h-7.283a4.25,4.25,0,0,0,.714,2.426,2.392,2.392,0,0,0,2.069.914,2.675,2.675,0,0,0,2.087-.863,2.909,2.909,0,0,0,.631-1.16h1.642a3.459,3.459,0,0,1-.431,1.22,4.339,4.339,0,0,1-.821,1.1,3.892,3.892,0,0,1-1.883,1,5.721,5.721,0,0,1-1.364.148A4.184,4.184,0,0,1,110.771-1a5.252,5.252,0,0,1-1.29-3.781,5.711,5.711,0,0,1,1.3-3.887A4.285,4.285,0,0,1,114.176-10.159Zm2.663,4.4a4.326,4.326,0,0,0-.473-1.735A2.425,2.425,0,0,0,114.074-8.7a2.54,2.54,0,0,0-1.93.83,3.137,3.137,0,0,0-.826,2.111Zm4.583-4.175,2.653,8.09,2.774-8.09h1.828L124.929,0h-1.781l-3.665-9.936Zm12.821-.223a4.532,4.532,0,0,1,2.05.5,3.781,3.781,0,0,1,1.512,1.285,4.433,4.433,0,0,1,.668,1.753,11.472,11.472,0,0,1,.148,2.189h-7.283a4.25,4.25,0,0,0,.714,2.426,2.392,2.392,0,0,0,2.069.914,2.675,2.675,0,0,0,2.087-.863,2.909,2.909,0,0,0,.631-1.16h1.642a3.458,3.458,0,0,1-.431,1.22,4.339,4.339,0,0,1-.821,1.1,3.892,3.892,0,0,1-1.883,1,5.721,5.721,0,0,1-1.364.148A4.184,4.184,0,0,1,130.838-1a5.252,5.252,0,0,1-1.29-3.781,5.711,5.711,0,0,1,1.3-3.887A4.285,4.285,0,0,1,134.243-10.159Zm2.663,4.4a4.327,4.327,0,0,0-.473-1.735A2.425,2.425,0,0,0,134.141-8.7a2.54,2.54,0,0,0-1.93.83,3.137,3.137,0,0,0-.826,2.111Zm3.813-7.867h1.67V0h-1.67Zm8.118,12.552a2.3,2.3,0,0,0,2.278-1.257,6.263,6.263,0,0,0,.617-2.8,4.98,4.98,0,0,0-.445-2.264,2.505,2.505,0,0,0-2.431-1.373A2.4,2.4,0,0,0,146.628-7.6a5.418,5.418,0,0,0-.7,2.82,4.713,4.713,0,0,0,.7,2.644A2.451,2.451,0,0,0,148.836-1.076Zm.065-9.147a4.5,4.5,0,0,1,3.247,1.28,5,5,0,0,1,1.327,3.767,6.462,6.462,0,0,1-1.169,3.971A4.229,4.229,0,0,1,148.679.362a4.1,4.1,0,0,1-3.256-1.387,5.478,5.478,0,0,1-1.206-3.725,5.927,5.927,0,0,1,1.271-3.989A4.266,4.266,0,0,1,148.9-10.224Zm10.752,9.1A2.382,2.382,0,0,0,161.6-2.1a4.658,4.658,0,0,0,.775-2.927,5.464,5.464,0,0,0-.343-2.041,2.369,2.369,0,0,0-2.375-1.642,2.368,2.368,0,0,0-2.375,1.735,6.876,6.876,0,0,0-.343,2.356,5,5,0,0,0,.343,1.958A2.368,2.368,0,0,0,159.654-1.123ZM155.331-9.89h1.624v1.317a4.053,4.053,0,0,1,1.095-1.048,3.524,3.524,0,0,1,1.985-.557A3.733,3.733,0,0,1,162.9-8.883a5.3,5.3,0,0,1,1.178,3.7q0,3.247-1.7,4.639a3.836,3.836,0,0,1-2.5.881,3.4,3.4,0,0,1-1.883-.492A4.339,4.339,0,0,1,157-1.113V3.961h-1.67Zm10.7-.046h1.651v1.41a5.55,5.55,0,0,1,1.076-1.067,3.237,3.237,0,0,1,1.874-.566,2.949,2.949,0,0,1,1.911.584,3.055,3.055,0,0,1,.742.983,3.609,3.609,0,0,1,1.308-1.183,3.649,3.649,0,0,1,1.688-.385,2.761,2.761,0,0,1,2.728,1.447,4.731,4.731,0,0,1,.39,2.1V0h-1.735V-6.9a1.608,1.608,0,0,0-.5-1.364,1.964,1.964,0,0,0-1.211-.371,2.4,2.4,0,0,0-1.693.659,2.893,2.893,0,0,0-.71,2.2V0h-1.7V-6.485a3.369,3.369,0,0,0-.241-1.475,1.471,1.471,0,0,0-1.419-.7,2.449,2.449,0,0,0-1.721.733A3.592,3.592,0,0,0,167.7-5.27V0h-1.67Zm19.965-.223a4.532,4.532,0,0,1,2.05.5,3.781,3.781,0,0,1,1.512,1.285,4.433,4.433,0,0,1,.668,1.753,11.472,11.472,0,0,1,.148,2.189h-7.283a4.25,4.25,0,0,0,.714,2.426,2.392,2.392,0,0,0,2.069.914,2.675,2.675,0,0,0,2.087-.863,2.909,2.909,0,0,0,.631-1.16h1.642A3.458,3.458,0,0,1,189.8-1.9a4.339,4.339,0,0,1-.821,1.1A3.892,3.892,0,0,1,187.1.2a5.721,5.721,0,0,1-1.364.148A4.184,4.184,0,0,1,182.587-1a5.252,5.252,0,0,1-1.29-3.781,5.711,5.711,0,0,1,1.3-3.887A4.285,4.285,0,0,1,185.992-10.159Zm2.663,4.4a4.327,4.327,0,0,0-.473-1.735A2.425,2.425,0,0,0,185.89-8.7a2.54,2.54,0,0,0-1.93.83,3.137,3.137,0,0,0-.826,2.111Zm3.767-4.175h1.586v1.41A4.45,4.45,0,0,1,195.5-9.778a3.983,3.983,0,0,1,1.753-.38,2.891,2.891,0,0,1,2.857,1.475,5.238,5.238,0,0,1,.408,2.31V0h-1.7V-6.262a3.391,3.391,0,0,0-.269-1.466,1.631,1.631,0,0,0-1.614-.928,3.287,3.287,0,0,0-.974.121,2.509,2.509,0,0,0-1.206.816,2.458,2.458,0,0,0-.543,1.016,6.838,6.838,0,0,0-.125,1.5V0h-1.67Zm10.9-2.774h1.688v2.774H206.6v1.364h-1.586v6.485a.7.7,0,0,0,.353.7,1.5,1.5,0,0,0,.649.1q.121,0,.26,0t.325-.023V0a3.728,3.728,0,0,1-.6.121,5.689,5.689,0,0,1-.673.037,1.813,1.813,0,0,1-1.586-.6,2.659,2.659,0,0,1-.417-1.554V-8.572h-1.345V-9.936h1.345Zm11.216,9.593a2.429,2.429,0,0,0,.417,1.28,2.624,2.624,0,0,0,2.189.807,3.229,3.229,0,0,0,1.633-.4,1.34,1.34,0,0,0,.705-1.248,1.067,1.067,0,0,0-.566-.974,6.729,6.729,0,0,0-1.429-.473l-1.327-.334a6.472,6.472,0,0,1-1.874-.705,2.107,2.107,0,0,1-1.076-1.874,2.863,2.863,0,0,1,1.016-2.282,4.053,4.053,0,0,1,2.732-.872A3.793,3.793,0,0,1,220.2-8.878a2.859,2.859,0,0,1,.6,1.8h-1.577a1.932,1.932,0,0,0-.4-1.03,2.544,2.544,0,0,0-1.995-.659,2.384,2.384,0,0,0-1.433.362,1.134,1.134,0,0,0-.487.956,1.176,1.176,0,0,0,.64,1.039A3.847,3.847,0,0,0,216.645-6l1.1.269a8.536,8.536,0,0,1,2.412.844,2.235,2.235,0,0,1,.974,2.013,3.068,3.068,0,0,1-1.007,2.292,4.285,4.285,0,0,1-3.066.965,4.114,4.114,0,0,1-3.14-1.007,3.807,3.807,0,0,1-.988-2.491Zm8.841-9.593h1.688v2.774h1.586v1.364h-1.586v6.485a.7.7,0,0,0,.353.7,1.5,1.5,0,0,0,.649.1q.121,0,.26,0t.325-.023V0a3.728,3.728,0,0,1-.6.121,5.689,5.689,0,0,1-.673.037,1.813,1.813,0,0,1-1.586-.6,2.659,2.659,0,0,1-.417-1.554V-8.572h-1.345V-9.936h1.345Zm6.615,2.774v6.6a2.781,2.781,0,0,0,.241,1.243,1.683,1.683,0,0,0,1.661.891,2.347,2.347,0,0,0,2.375-1.559,6.184,6.184,0,0,0,.343-2.292v-4.88h1.67V0h-1.577l.019-1.466a3.369,3.369,0,0,1-.807.956A3.552,3.552,0,0,1,231.6.269a2.992,2.992,0,0,1-2.895-1.419,4.227,4.227,0,0,1-.417-2.032V-9.936Zm9.955,5.084a4.925,4.925,0,0,0,.677,2.672A2.373,2.373,0,0,0,242.8-1.1a2.286,2.286,0,0,0,1.906-1,4.71,4.71,0,0,0,.747-2.862,4.232,4.232,0,0,0-.77-2.788,2.4,2.4,0,0,0-1.9-.9,2.511,2.511,0,0,0-2.046.965A4.419,4.419,0,0,0,239.949-4.852Zm2.514-5.26a3.535,3.535,0,0,1,1.911.482,4.489,4.489,0,0,1,1.011.974v-5.019h1.6V0h-1.5V-1.382a3.613,3.613,0,0,1-1.382,1.327,3.957,3.957,0,0,1-1.828.408,3.7,3.7,0,0,1-2.876-1.4,5.459,5.459,0,0,1-1.215-3.716A6.414,6.414,0,0,1,239.3-8.521,3.63,3.63,0,0,1,242.463-10.112Zm7,.223h1.7V0h-1.7Zm0-3.739h1.7v1.893h-1.7Zm8.164,12.552A2.3,2.3,0,0,0,259.9-2.333a6.263,6.263,0,0,0,.617-2.8,4.98,4.98,0,0,0-.445-2.264,2.505,2.505,0,0,0-2.431-1.373A2.4,2.4,0,0,0,255.415-7.6a5.418,5.418,0,0,0-.7,2.82,4.713,4.713,0,0,0,.7,2.644A2.451,2.451,0,0,0,257.623-1.076Zm.065-9.147a4.5,4.5,0,0,1,3.247,1.28,5,5,0,0,1,1.327,3.767,6.462,6.462,0,0,1-1.169,3.971A4.229,4.229,0,0,1,257.465.362a4.1,4.1,0,0,1-3.256-1.387A5.478,5.478,0,0,1,253-4.75a5.927,5.927,0,0,1,1.271-3.989A4.266,4.266,0,0,1,257.688-10.224Z" transform="translate(544 1628)" fill="#333"/></g></svg>