<svg xmlns="http://www.w3.org/2000/svg" xmlns:xlink="http://www.w3.org/1999/xlink" width="1280" height="659.079" viewBox="0 0 1280 659.079"><defs><clipPath id="a"><path d="M4454.063,0l21.179,21.178V17.565L4457.68,0Z" transform="translate(-4454.063 -0.004)"/></clipPath><clipPath id="b"><path d="M4100.652,0l121.061,121.06v-3.617L4104.271,0Z" transform="translate(-4100.652 -0.004)"/></clipPath><clipPath id="c"><path d="M4233.181,0l83.6,83.6V79.991L4236.8,0Z" transform="translate(-4233.181 -0.004)"/></clipPath><clipPath id="d"><path d="M4277.361,0l71.119,71.118V67.506L4280.978,0Z" transform="translate(-4277.361 -0.004)"/></clipPath><clipPath id="e"><path d="M3879.517,39.33l183.559,183.559v-3.617L3881.326,37.521Z" transform="translate(-3879.517 -37.521)"/></clipPath><clipPath id="f"><path d="M3879.773,0,4063.259,183.49v-3.617L3883.39,0Z" transform="translate(-3879.773 -0.004)"/></clipPath><clipPath id="g"><path d="M3899.759,103.749,4077.6,281.587v-3.618L3901.567,101.94Z" transform="translate(-3899.759 -101.94)"/></clipPath><clipPath id="h"><path d="M3934.108,182.277l168.13,168.13v-3.618L3935.917,180.468Z" transform="translate(-3934.108 -180.468)"/></clipPath><clipPath id="i"><path d="M3872.041,164.384l185.672,185.672v-3.617L3873.85,162.576Z" transform="translate(-3872.041 -162.576)"/></clipPath><clipPath id="j"><path d="M3765.294,101.814l215.841,215.84v-3.617L3767.1,100.005Z" transform="translate(-3765.294 -100.005)"/></clipPath><clipPath id="k"><path d="M3743.206,123.9l222.083,222.084v-3.618L3745.015,122.093Z" transform="translate(-3743.206 -122.093)"/></clipPath><clipPath id="l"><path d="M3777.556,202.43,3989.931,414.8v-3.617L3779.365,200.621Z" transform="translate(-3777.556 -200.621)"/></clipPath><clipPath id="m"><path d="M3642.588,111.637l250.521,250.52V358.54L3644.4,109.828Z" transform="translate(-3642.588 -109.828)"/></clipPath><clipPath id="n"><path d="M3547.6,60.82l277.367,277.367V334.57L3549.4,59.011Z" transform="translate(-3547.596 -59.011)"/></clipPath><clipPath id="o"><path d="M3575.908,133.309l269.365,269.366v-3.617L3577.716,131.5Z" transform="translate(-3575.908 -131.5)"/></clipPath><clipPath id="p"><path d="M3610.26,300.19l259.657,259.657V556.23L3612.069,298.382Z" transform="translate(-3610.26 -298.382)"/></clipPath><clipPath id="q"><path d="M3515.775,338.234l286.361,286.36v-3.617L3517.584,336.425Z" transform="translate(-3515.775 -336.425)"/></clipPath><clipPath id="r"><path d="M3471.6,382.41l298.845,298.845v-3.617L3473.409,380.6Z" transform="translate(-3471.601 -380.602)"/></clipPath><clipPath id="s"><path d="M3514.6,513.761l286.693,286.693v-3.617L3516.408,511.953Z" transform="translate(-3514.6 -511.953)"/></clipPath><clipPath id="t"><path d="M3498.051,99.627,3789.421,391V387.38L3499.859,97.819Z" transform="translate(-3498.051 -97.819)"/></clipPath><clipPath id="u"><path d="M3626.475,272.225,3881.549,527.3v-3.617L3628.283,270.417Z" transform="translate(-3626.475 -270.417)"/></clipPath><clipPath id="v"><path d="M4498.242,0l8.693,8.692V5.08L4501.859,0Z" transform="translate(-4498.242 -0.004)"/></clipPath><clipPath id="w"><path d="M4321.538,0l58.633,58.633V55.02L4325.154,0Z" transform="translate(-4321.538 -0.004)"/></clipPath><clipPath id="x"><path d="M4409.886,0l33.664,33.664V30.05L4413.5,0Z" transform="translate(-4409.886 -0.004)"/></clipPath><clipPath id="y"><path d="M4365.711,0l46.149,46.149V42.535L4369.329,0Z" transform="translate(-4365.711 -0.004)"/></clipPath><clipPath id="z"><path d="M3970.723,42.187,4128.5,199.968v-3.617L3972.532,40.378Z" transform="translate(-3970.723 -40.378)"/></clipPath><clipPath id="aa"><path d="M4121.652,60.586l115.125,115.126V172.1L4123.46,58.778Z" transform="translate(-4121.652 -58.778)"/></clipPath><clipPath id="ab"><path d="M4290.468,141.051l67.415,67.414v-3.618l-65.605-65.605Z" transform="translate(-4290.468 -139.242)"/></clipPath><clipPath id="ac"><path d="M4209.078,15.484,4299.5,105.9v-3.618l-88.608-88.609Z" transform="translate(-4209.078 -13.675)"/></clipPath><clipPath id="ad"><path d="M4012.3,0l146.03,146.03v-3.617L4015.921,0Z" transform="translate(-4012.304 -0.004)"/></clipPath><clipPath id="ae"><path d="M4155.083,182.369l105.678,105.678v-3.617L4156.891,180.56Z" transform="translate(-4155.083 -180.56)"/></clipPath><clipPath id="af"><path d="M3627.644,361.75l254.744,254.744v-3.617L3629.453,359.941Z" transform="translate(-3627.644 -359.941)"/></clipPath><clipPath id="ag"><path d="M3779.583,557.866l211.8,211.8v-3.617L3781.391,556.057Z" transform="translate(-3779.583 -556.057)"/></clipPath><clipPath id="ah"><path d="M3711.734,578.368l230.978,230.978v-3.617l-229.169-229.17Z" transform="translate(-3711.734 -576.559)"/></clipPath><clipPath id="ai"><path d="M3535.857,490.845,3816.542,771.53v-3.618L3537.666,489.037Z" transform="translate(-3535.857 -489.037)"/></clipPath><clipPath id="aj"><path d="M3675.119,718.459l241.326,241.326v-3.617L3676.927,716.65Z" transform="translate(-3675.119 -716.65)"/></clipPath><clipPath id="ak"><path d="M3469.594,557.109l299.412,299.412V852.9L3471.4,555.3Z" transform="translate(-3469.594 -555.3)"/></clipPath><clipPath id="al"><path d="M3550.984,682.675l276.41,276.41v-3.617l-274.6-274.6Z" transform="translate(-3550.984 -680.867)"/></clipPath><clipPath id="am"><path d="M3618.259,794.127l257.4,257.4v-3.618L3620.068,792.319Z" transform="translate(-3618.259 -792.319)"/></clipPath><clipPath id="an"><path d="M3496.639,760.861l291.769,291.769v-3.617l-289.96-289.96Z" transform="translate(-3496.639 -759.052)"/></clipPath><clipPath id="ao"><path d="M3297.242,649.816l348.123,348.123v-3.618L3299.051,648.007Z" transform="translate(-3297.242 -648.007)"/></clipPath><clipPath id="ap"><path d="M3370.656,811.581l327.375,327.374v-3.617L3372.465,809.772Z" transform="translate(-3370.656 -809.772)"/></clipPath><clipPath id="aq"><path d="M3436.92,745.318l308.647,308.647v-3.617L3438.728,743.509Z" transform="translate(-3436.92 -743.509)"/></clipPath><clipPath id="ar"><path d="M3481.1,701.141,3777.259,997.3v-3.617L3482.906,699.332Z" transform="translate(-3481.098 -699.332)"/></clipPath><clipPath id="as"><path d="M3171.265,700.544l383.727,383.727v-3.618L3173.074,698.735Z" transform="translate(-3171.265 -698.735)"/></clipPath><clipPath id="at"><path d="M3046.3,928.988l395.229,395.229h3.618L3048.107,927.179Z" transform="translate(-3046.298 -927.179)"/></clipPath><clipPath id="au"><path d="M3154.9,905.057l388.353,388.353v-3.617L3156.706,903.249Z" transform="translate(-3154.897 -903.249)"/></clipPath><clipPath id="av"><path d="M3106.432,812.415l402.05,402.051v-3.618L3108.24,810.606Z" transform="translate(-3106.432 -810.606)"/></clipPath><clipPath id="aw"><path d="M2885.549,1033.295,3251.3,1399.044h3.618l-367.558-367.558Z" transform="translate(-2885.549 -1031.486)"/></clipPath><clipPath id="ax"><path d="M2873.283,932.676l394.186,394.186h3.618l-395.995-396Z" transform="translate(-2873.283 -930.867)"/></clipPath><clipPath id="ay"><path d="M2905.794,1097.713l347.543,347.543h3.617L2907.6,1095.9Z" transform="translate(-2905.794 -1095.904)"/></clipPath><clipPath id="az"><path d="M2940.143,1176.24l325.349,325.349h3.618L2941.952,1174.43Z" transform="translate(-2940.143 -1174.43)"/></clipPath><clipPath id="ba"><path d="M2878.075,1158.349l330.406,330.406h3.617L2879.884,1156.54Z" transform="translate(-2878.075 -1156.54)"/></clipPath><clipPath id="bb"><path d="M2771.329,1095.779l348.09,348.09h3.617l-349.9-349.9Z" transform="translate(-2771.329 -1093.97)"/></clipPath><clipPath id="bc"><path d="M2749.24,1117.866l341.848,341.848h3.617l-343.656-343.656Z" transform="translate(-2749.24 -1116.058)"/></clipPath><clipPath id="bd"><path d="M2783.59,1196.393l319.654,319.654h3.617L2785.4,1194.585Z" transform="translate(-2783.59 -1194.585)"/></clipPath><clipPath id="be"><path d="M3287.419,772.523l350.9,350.9V1119.8l-349.091-349.09Z" transform="translate(-3287.419 -770.714)"/></clipPath><clipPath id="bf"><path d="M3369.228,765.978l327.778,327.778v-3.616l-325.97-325.97Z" transform="translate(-3369.228 -764.17)"/></clipPath><clipPath id="bg"><path d="M3232,893.8l366.563,366.563v-3.617L3233.8,891.994Z" transform="translate(-3231.995 -891.994)"/></clipPath><clipPath id="bh"><path d="M3304.393,877.846l346.1,346.1v-3.617L3306.2,876.037Z" transform="translate(-3304.393 -876.037)"/></clipPath><clipPath id="bi"><path d="M3282.305,899.934l352.344,352.345v-3.617L3284.113,898.125Z" transform="translate(-3282.305 -898.125)"/></clipPath><clipPath id="bj"><path d="M3020.933,991.975,3398.361,1369.4h3.618L3022.742,990.166Z" transform="translate(-3020.933 -990.166)"/></clipPath><clipPath id="bk"><path d="M3127.687,1054.551l359.741,359.742h3.617L3129.5,1052.742Z" transform="translate(-3127.687 -1052.742)"/></clipPath><clipPath id="bl"><path d="M3296.5,1135.016l337,337h3.616l-338.808-338.809Z" transform="translate(-3296.504 -1133.208)"/></clipPath><clipPath id="bm"><path d="M3215.114,1009.449l371.334,371.334v-3.617L3216.922,1007.64Z" transform="translate(-3215.114 -1007.64)"/></clipPath><clipPath id="bn"><path d="M2987.089,1002.3,3361.6,1376.812h3.617L2988.9,1000.5Z" transform="translate(-2987.089 -1000.495)"/></clipPath><clipPath id="bo"><path d="M3116.94,1220.509l312.839,312.839h3.617L3118.749,1218.7Z" transform="translate(-3116.94 -1218.701)"/></clipPath><clipPath id="bp"><path d="M2940.236,1397.214l262.9,262.9h3.618l-264.707-264.706Z" transform="translate(-2940.236 -1395.405)"/></clipPath><clipPath id="bq"><path d="M2894.473,1395.628l263.345,263.345h3.618l-265.154-265.154Z" transform="translate(-2894.473 -1393.819)"/></clipPath><clipPath id="br"><path d="M2740.686,1286.016l294.324,294.325h3.617l-296.133-296.133Z" transform="translate(-2740.686 -1284.208)"/></clipPath><clipPath id="bs"><path d="M2902.035,1491.542l236.239,236.238h3.616l-238.046-238.047Z" transform="translate(-2902.035 -1489.734)"/></clipPath><clipPath id="bt"><path d="M2696.507,1330.194l281.839,281.839h3.617l-283.647-283.648Z" transform="translate(-2696.507 -1328.385)"/></clipPath><clipPath id="bu"><path d="M2777.9,1455.759,3024.25,1702.11h3.617l-248.159-248.16Z" transform="translate(-2777.899 -1453.95)"/></clipPath><clipPath id="bv"><path d="M2845.175,1567.212l214.853,214.852h3.617L2846.984,1565.4Z" transform="translate(-2845.175 -1565.404)"/></clipPath><clipPath id="bw"><path d="M2723.552,1533.943,2947.807,1758.2h3.618l-226.063-226.063Z" transform="translate(-2723.552 -1532.134)"/></clipPath><clipPath id="bx"><path d="M2524.159,1422.9,2779.8,1678.538h3.617l-257.447-257.447Z" transform="translate(-2524.159 -1421.091)"/></clipPath><clipPath id="by"><path d="M2597.572,1584.665l209.919,209.919h3.617L2599.38,1582.855Z" transform="translate(-2597.572 -1582.855)"/></clipPath><clipPath id="bz"><path d="M2663.835,1518.4l228.648,228.647h3.617l-230.456-230.456Z" transform="translate(-2663.835 -1516.593)"/></clipPath><clipPath id="ca"><path d="M2708.011,1474.224l241.133,241.133h3.618L2709.82,1472.415Z" transform="translate(-2708.011 -1472.415)"/></clipPath><clipPath id="cb"><path d="M2398.182,1473.627l241.3,241.3h3.616l-243.11-243.11Z" transform="translate(-2398.182 -1471.818)"/></clipPath><clipPath id="cc"><path d="M2273.215,1702.071l176.738,176.738h3.617l-178.546-178.547Z" transform="translate(-2273.215 -1700.262)"/></clipPath><clipPath id="cd"><path d="M2381.811,1678.14l183.5,183.5h3.617l-185.311-185.31Z" transform="translate(-2381.811 -1676.332)"/></clipPath><clipPath id="ce"><path d="M2333.349,1585.5l209.684,209.684h3.616l-211.492-211.492Z" transform="translate(-2333.349 -1583.691)"/></clipPath><clipPath id="cf"><path d="M2112.465,1806.378l147.258,147.258h3.618l-149.067-149.067Z" transform="translate(-2112.465 -1804.569)"/></clipPath><clipPath id="cg"><path d="M2078.111,1727.848,2247.563,1897.3h3.618L2079.92,1726.039Z" transform="translate(-2078.111 -1726.039)"/></clipPath><clipPath id="ch"><path d="M2132.708,1870.8l129.052,129.052h3.618l-130.861-130.861Z" transform="translate(-2132.708 -1868.988)"/></clipPath><clipPath id="ci"><path d="M2167.06,1949.323l106.858,106.858h3.617l-108.667-108.667Z" transform="translate(-2167.06 -1947.514)"/></clipPath><clipPath id="cj"><path d="M2104.991,1931.433l111.915,111.915h3.617L2106.8,1929.624Z" transform="translate(-2104.991 -1929.624)"/></clipPath><clipPath id="ck"><path d="M1998.244,1868.863l129.6,129.6h3.617l-131.408-131.407Z" transform="translate(-1998.244 -1867.054)"/></clipPath><clipPath id="cl"><path d="M1976.156,1890.951l123.356,123.356h3.617l-125.165-125.165Z" transform="translate(-1976.156 -1889.142)"/></clipPath><clipPath id="cm"><path d="M2010.507,1969.476,2111.67,2070.64h3.617l-102.971-102.972Z" transform="translate(-2010.507 -1967.668)"/></clipPath><clipPath id="cn"><path d="M1875.538,1878.685l126.823,126.822h3.617l-128.631-128.631Z" transform="translate(-1875.538 -1876.876)"/></clipPath><clipPath id="co"><path d="M1780.547,1827.868l141.185,141.185h3.617L1782.355,1826.06Z" transform="translate(-1780.547 -1826.06)"/></clipPath><clipPath id="cp"><path d="M1808.859,1900.359l120.7,120.7h3.617L1810.668,1898.55Z" transform="translate(-1808.859 -1898.55)"/></clipPath><clipPath id="cq"><path d="M1843.211,2067.239l73.533,73.533h3.617l-75.342-75.342Z" transform="translate(-1843.211 -2065.431)"/></clipPath><clipPath id="cr"><path d="M1748.726,2105.283l62.781,62.781h3.617l-64.589-64.59Z" transform="translate(-1748.726 -2103.474)"/></clipPath><clipPath id="cs"><path d="M1704.551,2149.458l50.3,50.3h3.617l-52.1-52.1Z" transform="translate(-1704.551 -2147.65)"/></clipPath><clipPath id="ct"><path d="M1747.55,2280.81l13.173,13.173h3.617L1749.358,2279Z" transform="translate(-1747.55 -2279.001)"/></clipPath><clipPath id="cu"><path d="M1731,1866.675l130.217,130.217h3.617l-132.025-132.025Z" transform="translate(-1731 -1864.867)"/></clipPath><clipPath id="cv"><path d="M1859.424,2039.273l81.437,81.437h3.617l-83.245-83.245Z" transform="translate(-1859.424 -2037.465)"/></clipPath><clipPath id="cw"><path d="M2514.336,1545.605l220.959,220.959h3.617L2516.145,1543.8Z" transform="translate(-2514.336 -1543.797)"/></clipPath><clipPath id="cx"><path d="M2596.143,1539.062l222.808,222.808h3.617l-224.617-224.617Z" transform="translate(-2596.143 -1537.253)"/></clipPath><clipPath id="cy"><path d="M2458.91,1666.884l186.682,186.682h3.617l-188.491-188.491Z" transform="translate(-2458.91 -1665.075)"/></clipPath><clipPath id="cz"><path d="M2531.306,1650.929,2722.5,1842.12h3.618l-193-193Z" transform="translate(-2531.306 -1649.12)"/></clipPath><clipPath id="da"><path d="M2509.218,1673.017l184.949,184.949h3.618l-186.758-186.758Z" transform="translate(-2509.218 -1671.208)"/></clipPath><clipPath id="db"><path d="M2203.673,1809.233l146.45,146.451h3.619l-148.26-148.26Z" transform="translate(-2203.673 -1807.424)"/></clipPath><clipPath id="dc"><path d="M2354.6,1827.633l141.251,141.251h3.616l-143.059-143.06Z" transform="translate(-2354.604 -1825.825)"/></clipPath><clipPath id="dd"><path d="M2523.42,1908.1l118.51,118.51h3.618l-120.318-120.319Z" transform="translate(-2523.42 -1906.289)"/></clipPath><clipPath id="de"><path d="M2442.03,1782.532l154,154h3.617l-155.806-155.806Z" transform="translate(-2442.03 -1780.723)"/></clipPath><clipPath id="df"><path d="M2236.093,1753.3l162.259,162.259h3.617L2237.9,1751.491Z" transform="translate(-2236.093 -1751.491)"/></clipPath><clipPath id="dg"><path d="M2388.032,1949.416l106.833,106.832h3.618l-108.641-108.641Z" transform="translate(-2388.032 -1947.607)"/></clipPath><clipPath id="dh"><path d="M1860.595,2128.8l56.135,56.135h3.617l-57.944-57.943Z" transform="translate(-1860.595 -2126.989)"/></clipPath><clipPath id="di"><path d="M2012.534,2324.914l.708.708h3.617l-2.517-2.517Z" transform="translate(-2012.534 -2323.106)"/></clipPath><clipPath id="dj"><path d="M1768.809,2257.893l19.65,19.65h3.618l-21.458-21.458Z" transform="translate(-1768.809 -2256.084)"/></clipPath><clipPath id="dk"><path d="M1702.543,2324.158l.922.922h3.618l-2.73-2.73Z" transform="translate(-1702.543 -2322.349)"/></clipPath><clipPath id="dl"><path d="M0,2280.584l11.939,11.939h3.618L0,2276.966Z" transform="translate(0 -2276.966)"/></clipPath><clipPath id="dm"><path d="M0,2192.234l36.909,36.909h3.617L0,2188.617Z" transform="translate(0 -2188.617)"/></clipPath><clipPath id="dn"><path d="M0,2103.879l61.88,61.88H65.5L0,2100.262Z" transform="translate(0 -2100.262)"/></clipPath><clipPath id="do"><path d="M0,2236.408l24.424,24.424h3.617L0,2232.791Z" transform="translate(0 -2232.791)"/></clipPath><clipPath id="dp"><path d="M0,2324.216H3.071L0,2321.145Z" transform="translate(0 -2321.145)"/></clipPath><clipPath id="dq"><path d="M0,2015.527l86.85,86.85h3.618L0,2011.909Z" transform="translate(0 -2011.909)"/></clipPath><clipPath id="dr"><path d="M0,1662.117l171.216,171.216,1.809-1.809L0,1658.5Z" transform="translate(0 -1658.5)"/></clipPath><clipPath id="ds"><path d="M0,1794.646l140.523,140.523,1.809-1.809L0,1791.028Z" transform="translate(0 -1791.028)"/></clipPath><clipPath id="dt"><path d="M0,1838.824l136.791,136.791h3.616L0,1835.208Z" transform="translate(0 -1835.208)"/></clipPath><clipPath id="du"><path d="M0,1397.061l216.646,216.647,1.809-1.808L0,1393.444Z" transform="translate(0 -1393.444)"/></clipPath><clipPath id="dv"><path d="M0,1441.236l226.356,226.356,1.809-1.808L0,1437.618Z" transform="translate(0 -1437.618)"/></clipPath><clipPath id="dw"><path d="M0,1352.885l210.926,210.926,1.808-1.809L0,1349.267Z" transform="translate(0 -1349.267)"/></clipPath><clipPath id="dx"><path d="M0,1308.708l201.217,201.217,1.809-1.809L0,1305.09Z" transform="translate(0 -1305.09)"/></clipPath><clipPath id="dy"><path d="M0,1264.532l218.76,218.76,1.808-1.808L0,1260.915Z" transform="translate(0 -1260.915)"/></clipPath><clipPath id="dz"><path d="M0,1220.356l248.929,248.928,1.809-1.808L0,1216.738Z" transform="translate(0 -1216.738)"/></clipPath><clipPath id="ea"><path d="M0,1176.179,255.171,1431.35l1.809-1.809L0,1172.561Z" transform="translate(0 -1172.561)"/></clipPath><clipPath id="eb"><path d="M0,1132l245.463,245.463,1.809-1.808L0,1128.385Z" transform="translate(0 -1128.385)"/></clipPath><clipPath id="ec"><path d="M0,1087.827l283.608,283.609,1.809-1.809L0,1084.21Z" transform="translate(0 -1084.21)"/></clipPath><clipPath id="ed"><path d="M0,1043.651l310.455,310.455,1.808-1.808L0,1040.033Z" transform="translate(0 -1040.033)"/></clipPath><clipPath id="ee"><path d="M0,999.474l302.454,302.454,1.808-1.809L0,995.857Z" transform="translate(0 -995.857)"/></clipPath><clipPath id="ef"><path d="M0,866.945l292.745,292.745,1.808-1.808L0,863.329Z" transform="translate(0 -863.329)"/></clipPath><clipPath id="eg"><path d="M0,734.416l319.448,319.449,1.809-1.809L0,730.8Z" transform="translate(0 -730.798)"/></clipPath><clipPath id="eh"><path d="M0,646.066,331.933,978l1.808-1.808L0,642.449Z" transform="translate(0 -642.449)"/></clipPath><clipPath id="ei"><path d="M0,557.714,319.781,877.5l1.808-1.809L0,554.1Z" transform="translate(0 -554.097)"/></clipPath><clipPath id="ej"><path d="M0,955.3l324.458,324.458,1.809-1.808L0,951.683Z" transform="translate(0 -951.683)"/></clipPath><clipPath id="ek"><path d="M0,911.122l288.163,288.163,1.808-1.808L0,907.505Z" transform="translate(0 -907.505)"/></clipPath><clipPath id="el"><path d="M0,2059.7l74.365,74.365h3.616L0,2056.088Z" transform="translate(0 -2056.088)"/></clipPath><clipPath id="em"><path d="M0,2148.057l49.395,49.4h3.617L0,2144.44Z" transform="translate(0 -2144.44)"/></clipPath><clipPath id="en"><path d="M0,1883l118.734,118.734,1.808-1.808L0,1879.384Z" transform="translate(0 -1879.384)"/></clipPath><clipPath id="eo"><path d="M0,1971.351l98.272,98.272,1.809-1.809L0,1967.733Z" transform="translate(0 -1967.733)"/></clipPath><clipPath id="ep"><path d="M0,1927.174,104.515,2031.69l1.809-1.809L0,1923.557Z" transform="translate(0 -1923.557)"/></clipPath><clipPath id="eq"><path d="M0,1485.412l190.87,190.87,1.809-1.809L0,1481.795Z" transform="translate(0 -1481.795)"/></clipPath><clipPath id="er"><path d="M0,1617.942l148.214,148.214,1.808-1.808L0,1614.326Z" transform="translate(0 -1614.326)"/></clipPath><clipPath id="es"><path d="M0,1706.295l100.5,100.5,1.809-1.809L0,1702.677Z" transform="translate(0 -1702.677)"/></clipPath><clipPath id="et"><path d="M0,1750.469l123.5,123.505,1.809-1.809L0,1746.852Z" transform="translate(0 -1746.852)"/></clipPath><clipPath id="eu"><path d="M0,1573.766l181.707,181.708,1.808-1.809L0,1570.149Z" transform="translate(0 -1570.149)"/></clipPath><clipPath id="ev"><path d="M0,1529.59l138.766,138.766,1.808-1.808L0,1525.973Z" transform="translate(0 -1525.973)"/></clipPath><clipPath id="ew"><path d="M0,822.771,287.832,1110.6l1.809-1.809L0,819.154Z" transform="translate(0 -819.154)"/></clipPath><clipPath id="ex"><path d="M0,778.593l244.89,244.891,1.808-1.809L0,774.976Z" transform="translate(0 -774.976)"/></clipPath><clipPath id="ey"><path d="M0,690.241,264.066,954.307l1.808-1.809L0,686.623Z" transform="translate(0 -686.623)"/></clipPath><clipPath id="ez"><path d="M0,601.888,313.772,915.661l1.809-1.808L0,598.271Z" transform="translate(0 -598.271)"/></clipPath><clipPath id="fa"><path d="M0,513.535,274.414,787.95l1.808-1.809L0,509.918Z" transform="translate(0 -509.918)"/></clipPath><clipPath id="fb"><path d="M0,469.36l332.5,332.5,1.809-1.809L0,465.742Z" transform="translate(0 -465.742)"/></clipPath><clipPath id="fc"><path d="M0,425.184l309.5,309.5,1.809-1.808L0,421.567Z" transform="translate(0 -421.567)"/></clipPath><clipPath id="fd"><path d="M0,381.007,290.484,671.491l1.809-1.808L0,377.39Z" transform="translate(0 -377.39)"/></clipPath><clipPath id="fe"><path d="M0,292.654,324.857,617.51l1.808-1.809L0,289.036Z" transform="translate(0 -289.036)"/></clipPath><clipPath id="ff"><path d="M0,204.3,381.211,585.513l1.809-1.809L0,200.685Z" transform="translate(0 -200.685)"/></clipPath><clipPath id="fg"><path d="M0,115.95,360.462,476.413l1.809-1.808L0,112.333Z" transform="translate(0 -112.333)"/></clipPath><clipPath id="fh"><path d="M0,248.478,341.735,590.213l1.808-1.808L0,244.861Z" transform="translate(0 -244.861)"/></clipPath><clipPath id="fi"><path d="M0,336.832,329.249,666.081l1.809-1.809L0,333.214Z" transform="translate(0 -333.214)"/></clipPath><clipPath id="fj"><path d="M0,27.6,416.814,444.41l1.809-1.809L0,23.978Z" transform="translate(0 -23.978)"/></clipPath><clipPath id="fk"><path d="M316.634,0,679.279,362.649l1.809-1.809L320.252,0Z" transform="translate(-316.634 -0.004)"/></clipPath><clipPath id="fl"><path d="M184.107,0,553.515,369.412l1.808-1.808L187.724,0Z" transform="translate(-184.107 -0.004)"/></clipPath><clipPath id="fm"><path d="M139.929,0,535.521,395.6l1.808-1.809L143.547,0Z" transform="translate(-139.929 -0.004)"/></clipPath><clipPath id="fn"><path d="M581.69,0,914.855,333.169l1.809-1.809L585.308,0Z" transform="translate(-581.69 -0.004)"/></clipPath><clipPath id="fo"><path d="M493.339,0l361.6,361.6,1.809-1.809L496.956,0Z" transform="translate(-493.339 -0.004)"/></clipPath><clipPath id="fp"><path d="M625.866,0,940.825,314.963l1.809-1.809L629.483,0Z" transform="translate(-625.866 -0.004)"/></clipPath><clipPath id="fq"><path d="M670.043,0,962.808,292.77l1.809-1.809L673.661,0Z" transform="translate(-670.043 -0.004)"/></clipPath><clipPath id="fr"><path d="M714.219,0l297.822,297.822,1.809-1.809L717.837,0Z" transform="translate(-714.219 -0.004)"/></clipPath><clipPath id="fs"><path d="M758.4,0,1073.9,315.51l1.808-1.809L762.012,0Z" transform="translate(-758.395 -0.004)"/></clipPath><clipPath id="ft"><path d="M802.574,0l309.263,309.263,1.808-1.808L806.191,0Z" transform="translate(-802.574 -0.004)"/></clipPath><clipPath id="fu"><path d="M846.749,0l287.07,287.07,1.808-1.809L850.366,0Z" transform="translate(-846.749 -0.004)"/></clipPath><clipPath id="fv"><path d="M0,71.774,383.987,455.76l1.808-1.808L0,68.157Z" transform="translate(0 -68.157)"/></clipPath><clipPath id="fw"><path d="M0,160.126,360.866,520.993l1.808-1.808L0,156.51Z" transform="translate(0 -156.51)"/></clipPath><clipPath id="fx"><path d="M95.752,0,468.341,372.593l1.809-1.808L99.369,0Z" transform="translate(-95.752 -0.004)"/></clipPath><clipPath id="fy"><path d="M7.4,0,384.5,377.1l1.808-1.809L11.016,0Z" transform="translate(-7.399 -0.004)"/></clipPath><clipPath id="fz"><path d="M51.579,0,422.435,370.86l1.808-1.808L55.2,0Z" transform="translate(-51.579 -0.004)"/></clipPath><clipPath id="ga"><path d="M404.986,0,749.83,344.847l1.809-1.809L408.6,0Z" transform="translate(-404.986 -0.004)"/></clipPath><clipPath id="gb"><path d="M360.81,0,687.968,327.162l1.809-1.809L364.428,0Z" transform="translate(-360.81 -0.004)"/></clipPath><clipPath id="gc"><path d="M272.459,0,576.875,304.42l1.809-1.809L276.076,0Z" transform="translate(-272.459 -0.004)"/></clipPath><clipPath id="gd"><path d="M228.281,0l339.9,339.9,1.809-1.809L231.9,0Z" transform="translate(-228.281 -0.004)"/></clipPath><clipPath id="ge"><path d="M449.163,0,791.086,341.928l1.809-1.809L452.78,0Z" transform="translate(-449.163 -0.004)"/></clipPath><clipPath id="gf"><path d="M537.514,0,817.768,280.258l1.809-1.808L541.132,0Z" transform="translate(-537.514 -0.004)"/></clipPath><clipPath id="gg"><path d="M890.923,0l230.314,230.314,1.809-1.808L894.541,0Z" transform="translate(-890.923 -0.004)"/></clipPath><clipPath id="gh"><path d="M935.1,0l230.762,230.761,1.809-1.809L938.718,0Z" transform="translate(-935.1 -0.004)"/></clipPath><clipPath id="gi"><path d="M979.278,0l261.74,261.74,1.808-1.809L982.895,0Z" transform="translate(-979.278 -0.004)"/></clipPath><clipPath id="gj"><path d="M1023.453,0l203.654,203.654,1.809-1.808L1027.07,0Z" transform="translate(-1023.453 -0.004)"/></clipPath><clipPath id="gk"><path d="M1067.629,0l249.255,249.255,1.809-1.809L1071.247,0Z" transform="translate(-1067.629 -0.004)"/></clipPath><clipPath id="gl"><path d="M1111.805,0l213.767,213.767,1.809-1.809L1115.423,0Z" transform="translate(-1111.805 -0.004)"/></clipPath><clipPath id="gm"><path d="M1155.984,0l182.268,182.268,1.808-1.809L1159.6,0Z" transform="translate(-1155.984 -0.004)"/></clipPath><clipPath id="gn"><path d="M1244.333,0,1436,191.674l1.81-1.808L1247.951,0Z" transform="translate(-1244.333 -0.004)"/></clipPath><clipPath id="go"><path d="M1332.688,0l223.054,223.054,1.808-1.808L1336.3,0Z" transform="translate(-1332.688 -0.004)"/></clipPath><clipPath id="gp"><path d="M1421.039,0l177.335,177.335,1.809-1.809L1424.657,0Z" transform="translate(-1421.039 -0.004)"/></clipPath><clipPath id="gq"><path d="M1288.51,0l196.063,196.063,1.809-1.808L1292.128,0Z" transform="translate(-1288.51 -0.004)"/></clipPath><clipPath id="gr"><path d="M1200.158,0l208.549,208.548,1.809-1.809L1203.776,0Z" transform="translate(-1200.158 -0.004)"/></clipPath><clipPath id="gs"><path d="M1509.391,0l208.717,208.717,1.808-1.809L1513.008,0Z" transform="translate(-1509.391 -0.004)"/></clipPath><clipPath id="gt"><path d="M1862.8,0l144.154,144.154,1.809-1.809L1866.419,0Z" transform="translate(-1862.801 -0.004)"/></clipPath><clipPath id="gu"><path d="M1730.273,0,1881.19,150.921l1.809-1.808L1733.89,0Z" transform="translate(-1730.273 -0.004)"/></clipPath><clipPath id="gv"><path d="M1686.1,0l177.1,177.1,1.808-1.808L1689.714,0Z" transform="translate(-1686.097 -0.004)"/></clipPath><clipPath id="gw"><path d="M2127.856,0l114.675,114.674,1.809-1.809L2131.474,0Z" transform="translate(-2127.856 -0.004)"/></clipPath><clipPath id="gx"><path d="M2083.682,0,2220.55,136.872l1.809-1.808L2087.3,0Z" transform="translate(-2083.682 -0.004)"/></clipPath><clipPath id="gy"><path d="M2172.034,0,2268.5,96.471l1.809-1.809L2175.652,0Z" transform="translate(-2172.034 -0.004)"/></clipPath><clipPath id="gz"><path d="M2216.21,0l74.275,74.274,1.808-1.809L2219.828,0Z" transform="translate(-2216.21 -0.004)"/></clipPath><clipPath id="ha"><path d="M2260.386,0l79.331,79.331,1.809-1.809L2264,0Z" transform="translate(-2260.386 -0.004)"/></clipPath><clipPath id="hb"><path d="M2304.563,0l97.015,97.014,1.809-1.808L2308.181,0Z" transform="translate(-2304.563 -0.004)"/></clipPath><clipPath id="hc"><path d="M2348.739,0l90.772,90.772,1.809-1.809L2352.357,0Z" transform="translate(-2348.739 -0.004)"/></clipPath><clipPath id="hd"><path d="M2392.917,0,2461.5,68.583l1.808-1.808L2396.533,0Z" transform="translate(-2392.917 -0.004)"/></clipPath><clipPath id="he"><path d="M2437.093,0l94.239,94.238,1.808-1.809L2440.71,0Z" transform="translate(-2437.093 -0.004)"/></clipPath><clipPath id="hf"><path d="M2481.27,0l108.6,108.6,1.808-1.809L2484.887,0Z" transform="translate(-2481.27 -0.004)"/></clipPath><clipPath id="hg"><path d="M2525.445,0l88.113,88.113,1.809-1.808L2529.062,0Z" transform="translate(-2525.445 -0.004)"/></clipPath><clipPath id="hh"><path d="M2657.973,0l40.949,40.948,1.809-1.808L2661.59,0Z" transform="translate(-2657.973 -0.004)"/></clipPath><clipPath id="hi"><path d="M2790.5,0l30.2,30.2,1.809-1.808L2794.12,0Z" transform="translate(-2790.502 -0.004)"/></clipPath><clipPath id="hj"><path d="M2878.854,0l17.712,17.712,1.809-1.808L2882.471,0Z" transform="translate(-2878.854 -0.004)"/></clipPath><clipPath id="hk"><path d="M2569.621,0l97.633,97.633,1.808-1.808L2573.238,0Z" transform="translate(-2569.621 -0.004)"/></clipPath><clipPath id="hl"><path d="M2613.8,0l48.853,48.853,1.808-1.809L2617.414,0Z" transform="translate(-2613.797 -0.004)"/></clipPath><clipPath id="hm"><path d="M1465.215,0,1653.59,188.378l1.808-1.808L1468.832,0Z" transform="translate(-1465.215 -0.004)"/></clipPath><clipPath id="hn"><path d="M1376.863,0l190.224,190.224,1.808-1.809L1380.48,0Z" transform="translate(-1376.863 -0.004)"/></clipPath><clipPath id="ho"><path d="M1641.919,0l154.1,154.1,1.809-1.809L1645.537,0Z" transform="translate(-1641.919 -0.004)"/></clipPath><clipPath id="hp"><path d="M1553.567,0l158.608,158.608,1.809-1.809L1557.185,0Z" transform="translate(-1553.567 -0.004)"/></clipPath><clipPath id="hq"><path d="M1597.742,0l152.365,152.365,1.809-1.809L1601.36,0Z" transform="translate(-1597.742 -0.004)"/></clipPath><clipPath id="hr"><path d="M2039.5,0,2153.37,113.871l1.81-1.809L2043.122,0Z" transform="translate(-2039.503 -0.004)"/></clipPath><clipPath id="hs"><path d="M1906.978,0l108.667,108.667,1.808-1.808L1910.595,0Z" transform="translate(-1906.978 -0.004)"/></clipPath><clipPath id="ht"><path d="M1818.623,0l85.926,85.926,1.808-1.809L1822.24,0Z" transform="translate(-1818.623 -0.004)"/></clipPath><clipPath id="hu"><path d="M1774.448,0l121.414,121.414,1.809-1.809L1778.065,0Z" transform="translate(-1774.448 -0.004)"/></clipPath><clipPath id="hv"><path d="M1951.154,0l129.675,129.675,1.808-1.809L1954.771,0Z" transform="translate(-1951.154 -0.004)"/></clipPath><clipPath id="hw"><path d="M1995.328,0l74.248,74.249,1.809-1.809L1998.946,0Z" transform="translate(-1995.328 -0.004)"/></clipPath><clipPath id="hx"><path d="M2702.147,0,2725.7,23.555l1.809-1.808L2705.764,0Z" transform="translate(-2702.147 -0.004)"/></clipPath></defs><g transform="translate(-960 -1874)"><g transform="translate(2218.821 1874)"><g transform="translate(0 0)" clip-path="url(#a)"><rect width="29.951" height="29.951" transform="translate(-10.589 10.589) rotate(-45)"/></g></g><g transform="translate(2118.939 1874)"><g transform="translate(0 0)" clip-path="url(#b)"><rect width="171.205" height="171.205" transform="translate(-60.53 60.53) rotate(-45)"/></g></g><g transform="translate(2156.395 1874)"><g transform="translate(0 0)" clip-path="url(#c)"><rect width="118.235" height="118.235" transform="translate(-41.802 41.802) rotate(-45)"/></g></g><g transform="translate(2168.881 1874)"><g transform="translate(0 0)" clip-path="url(#d)"><rect width="100.577" height="100.577" transform="translate(-35.559 35.559) rotate(-45)"/></g></g><g transform="translate(2056.441 1884.603)"><g clip-path="url(#e)"><rect width="260.87" height="260.87" transform="translate(-92.684 92.684) rotate(-45)"/></g></g><g transform="translate(2056.514 1874)"><g transform="translate(0 0)" clip-path="url(#f)"><rect width="259.488" height="259.489" transform="translate(-91.743 91.743) rotate(-45)"/></g></g><g transform="translate(2062.162 1902.809)"><g clip-path="url(#g)"><rect width="252.78" height="252.78" transform="translate(-89.824 89.824) rotate(-45)"/></g></g><g transform="translate(2071.87 1925.003)"><g clip-path="url(#h)"><rect width="239.051" height="239.05" transform="translate(-84.969 84.969) rotate(-45)"/></g></g><g transform="translate(2054.328 1919.947)"><g clip-path="url(#i)"><rect width="263.858" height="263.858" transform="translate(-93.74 93.74) rotate(-45)"/></g></g><g transform="translate(2024.159 1902.263)"><g clip-path="url(#j)"><rect width="306.524" height="306.524" transform="translate(-108.825 108.825) rotate(-45)"/></g></g><g transform="translate(2017.917 1908.505)"><g clip-path="url(#k)"><rect width="315.353" height="315.353" transform="translate(-111.946 111.946) rotate(-45)"/></g></g><g transform="translate(2027.625 1930.699)"><g clip-path="url(#l)"><rect width="301.623" height="301.623" transform="translate(-107.092 107.092) rotate(-45)"/></g></g><g transform="translate(1989.48 1905.039)"><g clip-path="url(#m)"><rect width="355.568" height="355.568" transform="translate(-126.164 126.164) rotate(-45)"/></g></g><g transform="translate(1962.633 1890.677)"><g clip-path="url(#n)"><rect width="393.535" height="393.535" transform="translate(-139.588 139.588) rotate(-45)"/></g></g><g transform="translate(1970.634 1911.164)"><g clip-path="url(#o)"><rect width="382.22" height="382.22" transform="translate(-135.587 135.587) rotate(-45)"/></g></g><g transform="translate(1980.343 1958.328)"><g clip-path="url(#p)"><rect width="368.489" height="368.489" transform="translate(-130.733 130.733) rotate(-45)"/></g></g><g transform="translate(1953.639 1969.08)"><g clip-path="url(#q)"><rect width="406.254" height="406.254" transform="translate(-144.085 144.085) rotate(-45)"/></g></g><g transform="translate(1941.155 1981.566)"><g clip-path="url(#r)"><rect width="423.91" height="423.91" transform="translate(-150.327 150.327) rotate(-45)"/></g></g><g transform="translate(1953.307 2018.689)"><g clip-path="url(#s)"><rect width="406.723" height="406.724" transform="translate(-144.251 144.251) rotate(-45)"/></g></g><g transform="translate(1948.63 1901.645)"><g clip-path="url(#t)"><rect width="413.338" height="413.338" transform="translate(-146.589 146.589) rotate(-45)"/></g></g><g transform="translate(1984.926 1950.425)"><g clip-path="url(#u)"><rect width="362.009" height="362.009" transform="translate(-128.442 128.442) rotate(-45)"/></g></g><g transform="translate(2231.307 1874)"><g transform="translate(0 0)" clip-path="url(#v)"><rect width="12.293" height="12.293" transform="matrix(0.707, -0.707, 0.707, 0.707, -4.346, 4.346)"/></g></g><g transform="translate(2181.366 1874)"><g transform="translate(0 0)" clip-path="url(#w)"><rect width="82.92" height="82.92" transform="translate(-29.317 29.317) rotate(-45)"/></g></g><g transform="translate(2206.336 1874)"><g transform="translate(0 0)" clip-path="url(#x)"><rect width="47.608" height="47.608" transform="matrix(0.707, -0.707, 0.707, 0.707, -16.832, 16.832)"/></g></g><g transform="translate(2193.851 1874)"><g transform="translate(0 0)" clip-path="url(#y)"><rect width="65.264" height="65.264" transform="matrix(0.707, -0.707, 0.707, 0.707, -23.074, 23.075)"/></g></g><g transform="translate(2082.218 1885.411)"><g clip-path="url(#z)"><rect width="224.416" height="224.416" transform="translate(-79.795 79.795) rotate(-45)"/></g></g><g transform="translate(2124.874 1890.611)"><g clip-path="url(#aa)"><rect width="164.091" height="164.091" transform="translate(-58.467 58.467) rotate(-45)"/></g></g><g transform="translate(2172.585 1913.352)"><g clip-path="url(#ab)"><rect width="96.617" height="96.617" transform="translate(-34.611 34.611) rotate(-45)"/></g></g><g transform="translate(2149.583 1877.864)"><g clip-path="url(#ac)"><rect width="129.148" height="129.148" transform="translate(-46.113 46.113) rotate(-45)"/></g></g><g transform="translate(2093.97 1874)"><g transform="translate(0 0)" clip-path="url(#ad)"><rect width="206.518" height="206.517" transform="translate(-73.015 73.015) rotate(-45)"/></g></g><g transform="translate(2134.323 1925.029)"><g clip-path="url(#ae)"><rect width="150.729" height="150.729" transform="translate(-53.743 53.743) rotate(-45)"/></g></g><g transform="translate(1985.256 1975.727)"><g clip-path="url(#af)"><rect width="361.541" height="361.541" transform="translate(-128.276 128.276) rotate(-45)"/></g></g><g transform="translate(2028.198 2031.153)"><g clip-path="url(#ag)"><rect width="300.813" height="300.813" transform="translate(-106.806 106.806) rotate(-45)"/></g></g><g transform="translate(2009.022 2036.948)"><g clip-path="url(#ah)"><rect width="327.931" height="327.931" transform="translate(-116.394 116.394) rotate(-45)"/></g></g><g transform="translate(1959.315 2012.212)"><g clip-path="url(#ai)"><rect width="398.227" height="398.227" transform="translate(-141.247 141.247) rotate(-45)"/></g></g><g transform="translate(1998.673 2076.541)"><g clip-path="url(#aj)"><rect width="342.566" height="342.566" transform="translate(-121.568 121.568) rotate(-45)"/></g></g><g transform="translate(1940.587 2030.94)"><g clip-path="url(#ak)"><rect width="424.712" height="424.712" transform="translate(-150.611 150.611) rotate(-45)"/></g></g><g transform="translate(1963.59 2066.428)"><g clip-path="url(#al)"><rect width="392.181" height="392.181" transform="translate(-139.109 139.109) rotate(-45)"/></g></g><g transform="translate(1982.604 2097.927)"><g clip-path="url(#am)"><rect width="365.292" height="365.292" transform="translate(-129.602 129.602) rotate(-45)"/></g></g><g transform="translate(1948.231 2088.524)"><g clip-path="url(#an)"><rect width="413.902" height="413.902" transform="translate(-146.789 146.789) rotate(-45)"/></g></g><g transform="translate(1891.877 2057.141)"><g clip-path="url(#ao)"><rect width="493.599" height="493.599" transform="translate(-174.966 174.966) rotate(-45)"/></g></g><g transform="translate(1912.625 2102.859)"><g clip-path="url(#ap)"><rect width="464.256" height="464.256" transform="translate(-164.592 164.592) rotate(-45)"/></g></g><g transform="translate(1931.353 2084.132)"><g clip-path="url(#aq)"><rect width="437.771" height="437.772" transform="translate(-155.228 155.228) rotate(-45)"/></g></g><g transform="translate(1943.839 2071.646)"><g clip-path="url(#ar)"><rect width="420.114" height="420.114" transform="translate(-148.985 148.985) rotate(-45)"/></g></g><g transform="translate(1856.273 2071.478)"><g clip-path="url(#as)"><rect width="543.951" height="543.951" transform="translate(-192.768 192.768) rotate(-45)"/></g></g><g transform="translate(1820.954 2136.041)"><g clip-path="url(#at)"><rect width="562.775" height="562.775" transform="translate(-198.519 198.519) rotate(-45)"/></g></g><g transform="translate(1851.647 2129.278)"><g clip-path="url(#au)"><rect width="550.493" height="550.493" transform="translate(-195.081 195.081) rotate(-45)"/></g></g><g transform="translate(1837.949 2103.095)"><g clip-path="url(#av)"><rect width="569.865" height="569.864" transform="translate(-201.93 201.93) rotate(-45)"/></g></g><g transform="translate(1775.523 2165.521)"><g clip-path="url(#aw)"><rect width="521.085" height="521.085" transform="translate(-183.779 183.779) rotate(-45)"/></g></g><g transform="translate(1772.056 2137.083)"><g clip-path="url(#ax)"><rect width="561.301" height="561.301" transform="translate(-197.998 197.998) rotate(-45)"/></g></g><g transform="translate(1781.245 2183.727)"><g clip-path="url(#ay)"><rect width="495.337" height="495.337" transform="translate(-174.676 174.676) rotate(-45)"/></g></g><g transform="translate(1790.952 2205.92)"><g clip-path="url(#az)"><rect width="463.951" height="463.951" transform="translate(-163.579 163.579) rotate(-45)"/></g></g><g transform="translate(1773.411 2200.864)"><g clip-path="url(#ba)"><rect width="471.102" height="471.102" transform="translate(-166.108 166.107) rotate(-45)"/></g></g><g transform="translate(1743.242 2183.18)"><g clip-path="url(#bb)"><rect width="496.11" height="496.11" transform="translate(-174.949 174.949) rotate(-45)"/></g></g><g transform="translate(1736.999 2189.423)"><g clip-path="url(#bc)"><rect width="487.282" height="487.282" transform="translate(-171.828 171.828) rotate(-45)"/></g></g><g transform="translate(1746.707 2211.616)"><g clip-path="url(#bd)"><rect width="455.896" height="455.896" transform="translate(-160.731 160.731) rotate(-45)"/></g></g><g transform="translate(1889.101 2091.821)"><g clip-path="url(#be)"><rect width="497.525" height="497.525" transform="translate(-176.353 176.353) rotate(-45)"/></g></g><g transform="translate(1912.222 2089.971)"><g clip-path="url(#bf)"><rect width="464.827" height="464.827" transform="translate(-164.793 164.793) rotate(-45)"/></g></g><g transform="translate(1873.437 2126.097)"><g clip-path="url(#bg)"><rect width="519.677" height="519.677" transform="translate(-184.186 184.186) rotate(-45)"/></g></g><g transform="translate(1893.898 2121.587)"><g clip-path="url(#bh)"><rect width="490.741" height="490.741" transform="translate(-173.956 173.956) rotate(-45)"/></g></g><g transform="translate(1887.655 2127.83)"><g clip-path="url(#bi)"><rect width="499.57" height="499.57" transform="translate(-177.077 177.077) rotate(-45)"/></g></g><g transform="translate(1813.786 2153.843)"><g clip-path="url(#bj)"><rect width="537.6" height="537.6" transform="translate(-189.618 189.618) rotate(-45)"/></g></g><g transform="translate(1843.957 2171.528)"><g clip-path="url(#bk)"><rect width="512.588" height="512.588" transform="translate(-180.775 180.775) rotate(-45)"/></g></g><g transform="translate(1891.668 2194.27)"><g clip-path="url(#bl)"><rect width="480.427" height="480.427" transform="translate(-169.405 169.405) rotate(-45)"/></g></g><g transform="translate(1868.665 2158.781)"><g clip-path="url(#bm)"><rect width="526.425" height="526.425" transform="translate(-186.572 186.572) rotate(-45)"/></g></g><g transform="translate(1804.22 2156.762)"><g clip-path="url(#bn)"><rect width="533.471" height="533.471" transform="translate(-188.158 188.159) rotate(-45)"/></g></g><g transform="translate(1840.919 2218.432)"><g clip-path="url(#bo)"><rect width="446.257" height="446.257" transform="translate(-157.324 157.323) rotate(-45)"/></g></g><g transform="translate(1790.979 2268.373)"><g clip-path="url(#bp)"><rect width="375.63" height="375.63" transform="translate(-132.353 132.353) rotate(-45)"/></g></g><g transform="translate(1778.045 2267.924)"><g clip-path="url(#bq)"><rect width="376.264" height="376.264" transform="translate(-132.577 132.577) rotate(-45)"/></g></g><g transform="translate(1734.581 2236.946)"><g clip-path="url(#br)"><rect width="420.074" height="420.074" transform="translate(-148.067 148.067) rotate(-45)"/></g></g><g transform="translate(1780.182 2295.032)"><g clip-path="url(#bs)"><rect width="337.927" height="337.927" transform="translate(-119.023 119.023) rotate(-45)"/></g></g><g transform="translate(1722.095 2249.431)"><g clip-path="url(#bt)"><rect width="402.418" height="402.418" transform="translate(-141.824 141.824) rotate(-45)"/></g></g><g transform="translate(1745.098 2284.919)"><g clip-path="url(#bu)"><rect width="352.23" height="352.23" transform="translate(-124.08 124.08) rotate(-45)"/></g></g><g transform="translate(1764.112 2316.418)"><g clip-path="url(#bv)"><rect width="307.683" height="307.683" transform="translate(-108.33 108.33) rotate(-45)"/></g></g><g transform="translate(1729.739 2307.015)"><g clip-path="url(#bw)"><rect width="320.982" height="320.982" transform="translate(-113.032 113.032) rotate(-45)"/></g></g><g transform="translate(1673.386 2275.632)"><g clip-path="url(#bx)"><rect width="365.363" height="365.363" transform="translate(-128.723 128.723) rotate(-45)"/></g></g><g transform="translate(1694.134 2321.35)"><g clip-path="url(#by)"><rect width="300.708" height="300.708" transform="translate(-105.864 105.864) rotate(-45)"/></g></g><g transform="translate(1712.861 2302.623)"><g clip-path="url(#bz)"><rect width="327.193" height="327.193" transform="translate(-115.228 115.228) rotate(-45)"/></g></g><g transform="translate(1725.346 2290.137)"><g clip-path="url(#ca)"><rect width="344.85" height="344.85" transform="translate(-121.471 121.471) rotate(-45)"/></g></g><g transform="translate(1637.782 2289.969)"><g clip-path="url(#cb)"><rect width="345.088" height="345.088" transform="translate(-121.555 121.555) rotate(-45)"/></g></g><g transform="translate(1602.463 2354.532)"><g clip-path="url(#cc)"><rect width="253.782" height="253.782" transform="translate(-89.273 89.273) rotate(-45)"/></g></g><g transform="translate(1633.155 2347.769)"><g clip-path="url(#cd)"><rect width="263.347" height="263.347" transform="translate(-92.655 92.655) rotate(-45)"/></g></g><g transform="translate(1619.458 2321.587)"><g clip-path="url(#ce)"><rect width="300.374" height="300.374" transform="translate(-105.746 105.746) rotate(-45)"/></g></g><g transform="translate(1557.031 2384.012)"><g clip-path="url(#cf)"><rect width="212.092" height="212.092" transform="translate(-74.533 74.533) rotate(-45)"/></g></g><g transform="translate(1547.322 2361.817)"><g clip-path="url(#cg)"><rect width="243.479" height="243.479" transform="translate(-85.631 85.631) rotate(-45)"/></g></g><g transform="translate(1562.753 2402.218)"><g clip-path="url(#ch)"><rect width="186.344" height="186.344" transform="translate(-65.43 65.43) rotate(-45)"/></g></g><g transform="translate(1572.461 2424.411)"><g clip-path="url(#ci)"><rect width="154.957" height="154.957" transform="translate(-54.334 54.334) rotate(-45)"/></g></g><g transform="translate(1554.919 2419.355)"><g clip-path="url(#cj)"><rect width="162.108" height="162.108" transform="translate(-56.862 56.862) rotate(-45)"/></g></g><g transform="translate(1524.75 2401.671)"><g clip-path="url(#ck)"><rect width="187.117" height="187.117" transform="translate(-65.704 65.704) rotate(-45)"/></g></g><g transform="translate(1518.507 2407.914)"><g clip-path="url(#cl)"><rect width="178.289" height="178.289" transform="translate(-62.582 62.582) rotate(-45)"/></g></g><g transform="translate(1528.216 2430.107)"><g clip-path="url(#cm)"><rect width="146.902" height="146.902" transform="translate(-51.486 51.486) rotate(-45)"/></g></g><g transform="translate(1490.07 2404.448)"><g clip-path="url(#cn)"><rect width="183.191" height="183.191" transform="translate(-64.316 64.316) rotate(-45)"/></g></g><g transform="translate(1463.224 2390.086)"><g clip-path="url(#co)"><rect width="203.501" height="203.501" transform="translate(-71.497 71.497) rotate(-45)"/></g></g><g transform="translate(1471.225 2410.573)"><g clip-path="url(#cp)"><rect width="174.528" height="174.528" transform="translate(-61.253 61.253) rotate(-45)"/></g></g><g transform="translate(1480.934 2457.737)"><g clip-path="url(#cq)"><rect width="107.828" height="107.828" transform="translate(-37.671 37.671) rotate(-45)"/></g></g><g transform="translate(1454.23 2468.489)"><g clip-path="url(#cr)"><rect width="92.622" height="92.622" transform="translate(-32.295 32.295) rotate(-45)"/></g></g><g transform="translate(1441.745 2480.974)"><g clip-path="url(#cs)"><rect width="74.965" height="74.965" transform="translate(-26.052 26.052) rotate(-45)"/></g></g><g transform="translate(1453.898 2518.097)"><g clip-path="url(#ct)"><rect width="22.466" height="22.466" transform="translate(-7.491 7.491) rotate(-45)"/></g></g><g transform="translate(1449.221 2401.053)"><g clip-path="url(#cu)"><rect width="187.991" height="187.991" transform="translate(-66.013 66.013) rotate(-45)"/></g></g><g transform="translate(1485.516 2449.833)"><g clip-path="url(#cv)"><rect width="119.005" height="119.005" transform="translate(-41.623 41.623) rotate(-45)"/></g></g><g transform="translate(1670.609 2310.312)"><g clip-path="url(#cw)"><rect width="316.319" height="316.319" transform="translate(-111.384 111.384) rotate(-45)"/></g></g><g transform="translate(1693.73 2308.462)"><g clip-path="url(#cx)"><rect width="318.935" height="318.935" transform="translate(-112.308 112.308) rotate(-45)"/></g></g><g transform="translate(1654.945 2344.588)"><g clip-path="url(#cy)"><rect width="267.846" height="267.846" transform="translate(-94.246 94.246) rotate(-45)"/></g></g><g transform="translate(1675.406 2340.078)"><g clip-path="url(#cz)"><rect width="274.223" height="274.223" transform="translate(-96.5 96.5) rotate(-45)"/></g></g><g transform="translate(1669.163 2346.321)"><g clip-path="url(#da)"><rect width="265.395" height="265.395" transform="translate(-93.379 93.379) rotate(-45)"/></g></g><g transform="translate(1582.809 2384.819)"><g clip-path="url(#db)"><rect width="210.95" height="210.95" transform="translate(-74.13 74.13) rotate(-45)"/></g></g><g transform="translate(1625.466 2390.019)"><g clip-path="url(#dc)"><rect width="203.595" height="203.595" transform="translate(-71.53 71.53) rotate(-45)"/></g></g><g transform="translate(1673.177 2412.76)"><g clip-path="url(#dd)"><rect width="171.435" height="171.435" transform="translate(-60.159 60.159) rotate(-45)"/></g></g><g transform="translate(1650.174 2377.272)"><g clip-path="url(#de)"><rect width="221.622" height="221.622" transform="translate(-77.903 77.903) rotate(-45)"/></g></g><g transform="translate(1591.972 2369.011)"><g clip-path="url(#df)"><rect width="233.306" height="233.306" transform="translate(-82.034 82.034) rotate(-45)"/></g></g><g transform="translate(1634.913 2424.438)"><g clip-path="url(#dg)"><rect width="154.921" height="154.921" transform="translate(-54.321 54.321) rotate(-45)"/></g></g><g transform="translate(1485.847 2475.135)"><g clip-path="url(#dh)"><rect width="83.224" height="83.224" transform="translate(-28.972 28.972) rotate(-45)"/></g></g><g transform="translate(1528.789 2530.563)"><g clip-path="url(#di)"><rect width="4.838" height="4.838" transform="matrix(0.707, -0.707, 0.707, 0.707, -1.258, 1.258)"/></g></g><g transform="translate(1459.906 2511.62)"><g clip-path="url(#dj)"><rect width="31.626" height="31.626" transform="translate(-10.729 10.729) rotate(-45)"/></g></g><g transform="translate(1441.178 2530.348)"><g clip-path="url(#dk)"><rect width="5.141" height="5.141" transform="translate(-1.365 1.365) rotate(-45)"/></g></g><g transform="translate(960 2517.522)"><g clip-path="url(#dl)"><rect width="22" height="22" transform="translate(-7.778 7.778) rotate(-45)"/></g></g><g transform="translate(960 2492.553)"><g clip-path="url(#dm)"><rect width="57.313" height="57.313" transform="translate(-20.263 20.263) rotate(-45)"/></g></g><g transform="translate(960 2467.582)"><g clip-path="url(#dn)"><rect width="92.627" height="92.627" transform="translate(-32.749 32.749) rotate(-45)"/></g></g><g transform="translate(960 2505.037)"><g clip-path="url(#do)"><rect width="39.657" height="39.657" transform="translate(-14.021 14.021) rotate(-45)"/></g></g><g transform="translate(960 2530.008)"><g clip-path="url(#dp)"><rect width="4.343" height="4.343" transform="translate(-1.535 1.535) rotate(-45)"/></g></g><g transform="translate(960 2442.611)"><g clip-path="url(#dq)"><rect width="127.941" height="127.941" transform="translate(-45.234 45.234) rotate(-45)"/></g></g><g transform="translate(960 2342.729)"><g clip-path="url(#dr)"><rect width="245.972" height="245.972" transform="translate(-87.417 87.417) rotate(-45)"/></g></g><g transform="translate(960 2380.185)"><g clip-path="url(#ds)"><rect width="202.567" height="202.567" transform="translate(-72.071 72.071) rotate(-45)"/></g></g><g transform="translate(960 2392.671)"><g clip-path="url(#dt)"><rect width="198.567" height="198.567" transform="translate(-70.204 70.204) rotate(-45)"/></g></g><g transform="translate(960 2267.818)"><g clip-path="url(#du)"><rect width="310.221" height="310.221" transform="translate(-110.132 110.132) rotate(-45)"/></g></g><g transform="translate(960 2280.303)"><g clip-path="url(#dv)"><rect width="323.953" height="323.953" transform="translate(-114.987 114.987) rotate(-45)"/></g></g><g transform="translate(960 2255.333)"><g clip-path="url(#dw)"><rect width="302.131" height="302.131" transform="translate(-107.272 107.272) rotate(-45)"/></g></g><g transform="translate(960 2242.847)"><g clip-path="url(#dx)"><rect width="288.401" height="288.401" transform="translate(-102.418 102.418) rotate(-45)"/></g></g><g transform="translate(960 2230.363)"><g clip-path="url(#dy)"><rect width="313.209" height="313.209" transform="translate(-111.188 111.188) rotate(-45)"/></g></g><g transform="translate(960 2217.877)"><g clip-path="url(#dz)"><rect width="355.875" height="355.875" transform="translate(-126.273 126.273) rotate(-45)"/></g></g><g transform="translate(960 2205.392)"><g clip-path="url(#ea)"><rect width="364.704" height="364.704" transform="translate(-129.394 129.395) rotate(-45)"/></g></g><g transform="translate(960 2192.906)"><g clip-path="url(#eb)"><rect width="350.974" height="350.974" transform="translate(-124.54 124.54) rotate(-45)"/></g></g><g transform="translate(960 2180.422)"><g clip-path="url(#ec)"><rect width="404.919" height="404.919" transform="translate(-143.613 143.613) rotate(-45)"/></g></g><g transform="translate(960 2167.936)"><g clip-path="url(#ed)"><rect width="442.887" height="442.887" transform="translate(-157.036 157.036) rotate(-45)"/></g></g><g transform="translate(960 2155.451)"><g clip-path="url(#ee)"><rect width="431.57" height="431.57" transform="translate(-153.035 153.036) rotate(-45)"/></g></g><g transform="translate(960 2117.996)"><g clip-path="url(#ef)"><rect width="417.84" height="417.84" transform="translate(-148.181 148.181) rotate(-45)"/></g></g><g transform="translate(960 2080.539)"><g clip-path="url(#eg)"><rect width="455.605" height="455.605" transform="translate(-161.533 161.533) rotate(-45)"/></g></g><g transform="translate(960 2055.57)"><g clip-path="url(#eh)"><rect width="473.261" height="473.261" transform="translate(-167.775 167.775) rotate(-45)"/></g></g><g transform="translate(960 2030.599)"><g clip-path="url(#ei)"><rect width="456.075" height="456.075" transform="translate(-161.699 161.699) rotate(-45)"/></g></g><g transform="translate(960 2142.967)"><g clip-path="url(#ej)"><rect width="462.689" height="462.689" transform="translate(-164.037 164.037) rotate(-45)"/></g></g><g transform="translate(960 2130.481)"><g clip-path="url(#ek)"><rect width="411.36" height="411.36" transform="translate(-145.89 145.89) rotate(-45)"/></g></g><g transform="translate(960 2455.097)"><g clip-path="url(#el)"><rect width="110.283" height="110.283" transform="translate(-38.991 38.991) rotate(-45)"/></g></g><g transform="translate(960 2480.067)"><g clip-path="url(#em)"><rect width="74.97" height="74.97" transform="translate(-26.506 26.506) rotate(-45)"/></g></g><g transform="translate(960 2405.156)"><g clip-path="url(#en)"><rect width="171.751" height="171.751" transform="translate(-61.175 61.175) rotate(-45)"/></g></g><g transform="translate(960 2430.126)"><g clip-path="url(#eo)"><rect width="142.816" height="142.816" transform="translate(-50.945 50.945) rotate(-45)"/></g></g><g transform="translate(960 2417.641)"><g clip-path="url(#ep)"><rect width="151.644" height="151.644" transform="translate(-54.067 54.067) rotate(-45)"/></g></g><g transform="translate(960 2292.788)"><g clip-path="url(#eq)"><rect width="273.767" height="273.767" transform="translate(-97.243 97.243) rotate(-45)"/></g></g><g transform="translate(960 2330.245)"><g clip-path="url(#er)"><rect width="213.442" height="213.442" transform="translate(-75.915 75.915) rotate(-45)"/></g></g><g transform="translate(960 2355.215)"><g clip-path="url(#es)"><rect width="145.968" height="145.968" transform="translate(-52.06 52.06) rotate(-45)"/></g></g><g transform="translate(960 2367.7)"><g clip-path="url(#et)"><rect width="178.499" height="178.499" transform="translate(-63.561 63.561) rotate(-45)"/></g></g><g transform="translate(960 2317.759)"><g clip-path="url(#eu)"><rect width="260.81" height="260.81" transform="translate(-92.662 92.662) rotate(-45)"/></g></g><g transform="translate(960 2305.274)"><g clip-path="url(#ev)"><rect width="200.081" height="200.081" transform="translate(-71.191 71.191) rotate(-45)"/></g></g><g transform="translate(960 2105.511)"><g clip-path="url(#ew)"><rect width="410.892" height="410.892" transform="translate(-145.724 145.724) rotate(-45)"/></g></g><g transform="translate(960 2093.025)"><g clip-path="url(#ex)"><rect width="350.163" height="350.164" transform="translate(-124.254 124.254) rotate(-45)"/></g></g><g transform="translate(960 2068.054)"><g clip-path="url(#ey)"><rect width="377.282" height="377.282" transform="translate(-133.842 133.842) rotate(-45)"/></g></g><g transform="translate(960 2043.084)"><g clip-path="url(#ez)"><rect width="447.578" height="447.578" transform="translate(-158.695 158.695) rotate(-45)"/></g></g><g transform="translate(960 2018.114)"><g clip-path="url(#fa)"><rect width="391.917" height="391.917" transform="translate(-139.016 139.016) rotate(-45)"/></g></g><g transform="translate(960 2005.628)"><g clip-path="url(#fb)"><rect width="474.063" height="474.063" transform="translate(-168.059 168.059) rotate(-45)"/></g></g><g transform="translate(960 1993.143)"><g clip-path="url(#fc)"><rect width="441.532" height="441.532" transform="translate(-156.557 156.557) rotate(-45)"/></g></g><g transform="translate(960 1980.658)"><g clip-path="url(#fd)"><rect width="414.643" height="414.643" transform="translate(-147.05 147.051) rotate(-45)"/></g></g><g transform="translate(960 1955.687)"><g clip-path="url(#fe)"><rect width="463.254" height="463.254" transform="translate(-164.237 164.237) rotate(-45)"/></g></g><g transform="translate(960 1930.717)"><g clip-path="url(#ff)"><rect width="542.95" height="542.95" transform="translate(-192.414 192.414) rotate(-45)"/></g></g><g transform="translate(960 1905.747)"><g clip-path="url(#fg)"><rect width="513.607" height="513.608" transform="translate(-182.04 182.04) rotate(-45)"/></g></g><g transform="translate(960 1943.202)"><g clip-path="url(#fh)"><rect width="487.122" height="487.122" transform="translate(-172.676 172.676) rotate(-45)"/></g></g><g transform="translate(960 1968.173)"><g clip-path="url(#fi)"><rect width="469.466" height="469.466" transform="translate(-166.434 166.434) rotate(-45)"/></g></g><g transform="translate(960 1880.776)"><g clip-path="url(#fj)"><rect width="593.302" height="593.302" transform="translate(-210.216 210.216) rotate(-45)"/></g></g><g transform="translate(1049.488 1874)"><g transform="translate(0 0)" clip-path="url(#fk)"><rect width="514.136" height="514.136" transform="translate(-181.322 181.322) rotate(-45)"/></g></g><g transform="translate(1012.033 1874)"><g transform="translate(0 0)" clip-path="url(#fl)"><rect width="523.701" height="523.701" transform="translate(-184.704 184.704) rotate(-45)"/></g></g><g transform="translate(999.547 1874)"><g transform="translate(0 0)" clip-path="url(#fm)"><rect width="560.729" height="560.729" transform="translate(-197.796 197.796) rotate(-45)"/></g></g><g transform="translate(1124.399 1874)"><g transform="translate(0 0)" clip-path="url(#fn)"><rect width="472.446" height="472.446" transform="translate(-166.583 166.583) rotate(-45)"/></g></g><g transform="translate(1099.429 1874)"><g transform="translate(0 0)" clip-path="url(#fo)"><rect width="512.662" height="512.662" transform="translate(-180.801 180.801) rotate(-45)"/></g></g><g transform="translate(1136.884 1874)"><g transform="translate(0 0)" clip-path="url(#fp)"><rect width="446.698" height="446.698" transform="translate(-157.479 157.479) rotate(-45)"/></g></g><g transform="translate(1149.37 1874)"><g transform="translate(0 0)" clip-path="url(#fq)"><rect width="415.312" height="415.312" transform="translate(-146.383 146.383) rotate(-45)"/></g></g><g transform="translate(1161.855 1874)"><g transform="translate(0 0)" clip-path="url(#fr)"><rect width="422.463" height="422.463" transform="translate(-148.911 148.911) rotate(-45)"/></g></g><g transform="translate(1174.34 1874)"><g transform="translate(0 0)" clip-path="url(#fs)"><rect width="447.472" height="447.472" transform="translate(-157.753 157.753) rotate(-45)"/></g></g><g transform="translate(1186.826 1874)"><g transform="translate(0 0)" clip-path="url(#ft)"><rect width="438.643" height="438.643" transform="translate(-154.632 154.632) rotate(-45)"/></g></g><g transform="translate(1199.311 1874)"><g transform="translate(0 0)" clip-path="url(#fu)"><rect width="407.257" height="407.257" transform="translate(-143.535 143.535) rotate(-45)"/></g></g><g transform="translate(960 1893.262)"><g clip-path="url(#fv)"><rect width="546.876" height="546.876" transform="translate(-193.802 193.802) rotate(-45)"/></g></g><g transform="translate(960 1918.232)"><g clip-path="url(#fw)"><rect width="514.178" height="514.178" transform="translate(-182.242 182.241) rotate(-45)"/></g></g><g transform="translate(987.062 1874)"><g transform="translate(0 0)" clip-path="url(#fx)"><rect width="528.2" height="528.2" transform="translate(-186.295 186.295) rotate(-45)"/></g></g><g transform="translate(962.091 1874)"><g transform="translate(0 0)" clip-path="url(#fy)"><rect width="534.577" height="534.577" transform="translate(-188.549 188.55) rotate(-45)"/></g></g><g transform="translate(974.577 1874)"><g transform="translate(0 0)" clip-path="url(#fz)"><rect width="525.748" height="525.748" transform="translate(-185.428 185.428) rotate(-45)"/></g></g><g transform="translate(1074.458 1874)"><g transform="translate(0 0)" clip-path="url(#ga)"><rect width="488.961" height="488.961" transform="translate(-172.422 172.422) rotate(-45)"/></g></g><g transform="translate(1061.973 1874)"><g transform="translate(0 0)" clip-path="url(#gb)"><rect width="463.95" height="463.95" transform="translate(-163.579 163.579) rotate(-45)"/></g></g><g transform="translate(1037.003 1874)"><g transform="translate(0 0)" clip-path="url(#gc)"><rect width="431.788" height="431.788" transform="translate(-152.208 152.208) rotate(-45)"/></g></g><g transform="translate(1024.517 1874)"><g transform="translate(0 0)" clip-path="url(#gd)"><rect width="481.977" height="481.977" transform="translate(-169.952 169.952) rotate(-45)"/></g></g><g transform="translate(1086.944 1874)"><g transform="translate(0 0)" clip-path="url(#ge)"><rect width="484.832" height="484.832" transform="translate(-170.962 170.962) rotate(-45)"/></g></g><g transform="translate(1111.914 1874)"><g transform="translate(0 0)" clip-path="url(#gf)"><rect width="397.618" height="397.618" transform="translate(-140.127 140.127) rotate(-45)"/></g></g><g transform="translate(1211.795 1874)"><g transform="translate(0 0)" clip-path="url(#gg)"><rect width="326.992" height="326.992" transform="translate(-115.157 115.157) rotate(-45)"/></g></g><g transform="translate(1224.281 1874)"><g transform="translate(0 0)" clip-path="url(#gh)"><rect width="327.625" height="327.625" transform="translate(-115.381 115.381) rotate(-45)"/></g></g><g transform="translate(1236.767 1874)"><g transform="translate(0 0)" clip-path="url(#gi)"><rect width="371.435" height="371.435" transform="translate(-130.87 130.87) rotate(-45)"/></g></g><g transform="translate(1249.251 1874)"><g transform="translate(0 0)" clip-path="url(#gj)"><rect width="289.289" height="289.289" transform="translate(-101.827 101.827) rotate(-45)"/></g></g><g transform="translate(1261.737 1874)"><g transform="translate(0 0)" clip-path="url(#gk)"><rect width="353.779" height="353.779" transform="translate(-124.628 124.627) rotate(-45)"/></g></g><g transform="translate(1274.222 1874)"><g transform="translate(0 0)" clip-path="url(#gl)"><rect width="303.591" height="303.591" transform="translate(-106.883 106.883) rotate(-45)"/></g></g><g transform="translate(1286.708 1874)"><g transform="translate(0 0)" clip-path="url(#gm)"><rect width="259.044" height="259.044" transform="translate(-91.134 91.134) rotate(-45)"/></g></g><g transform="translate(1311.677 1874)"><g transform="translate(0 0)" clip-path="url(#gn)"><rect width="272.343" height="272.343" transform="translate(-95.835 95.835) rotate(-45)"/></g></g><g transform="translate(1336.648 1874)"><g transform="translate(0 0)" clip-path="url(#go)"><rect width="316.724" height="316.724" transform="translate(-111.527 111.527) rotate(-45)"/></g></g><g transform="translate(1361.618 1874)"><g transform="translate(0 0)" clip-path="url(#gp)"><rect width="252.069" height="252.069" transform="translate(-88.668 88.668) rotate(-45)"/></g></g><g transform="translate(1324.163 1874)"><g transform="translate(0 0)" clip-path="url(#gq)"><rect width="278.554" height="278.554" transform="translate(-98.031 98.031) rotate(-45)"/></g></g><g transform="translate(1299.192 1874)"><g transform="translate(0 0)" clip-path="url(#gr)"><rect width="296.211" height="296.211" transform="translate(-104.274 104.274) rotate(-45)"/></g></g><g transform="translate(1386.589 1874)"><g transform="translate(0 0)" clip-path="url(#gs)"><rect width="296.449" height="296.449" transform="translate(-104.359 104.359) rotate(-45)"/></g></g><g transform="translate(1486.471 1874)"><g transform="translate(0 0)" clip-path="url(#gt)"><rect width="205.143" height="205.143" transform="translate(-72.077 72.077) rotate(-45)"/></g></g><g transform="translate(1449.015 1874)"><g transform="translate(0 0)" clip-path="url(#gu)"><rect width="214.708" height="214.708" transform="translate(-75.459 75.459) rotate(-45)"/></g></g><g transform="translate(1436.53 1874)"><g transform="translate(0 0)" clip-path="url(#gv)"><rect width="251.735" height="251.735" transform="translate(-88.55 88.55) rotate(-45)"/></g></g><g transform="translate(1561.381 1874)"><g transform="translate(0 0)" clip-path="url(#gw)"><rect width="163.453" height="163.453" transform="translate(-57.337 57.337) rotate(-45)"/></g></g><g transform="translate(1548.897 1874)"><g transform="translate(0 0)" clip-path="url(#gx)"><rect width="194.84" height="194.84" transform="translate(-68.434 68.434) rotate(-45)"/></g></g><g transform="translate(1573.867 1874)"><g transform="translate(0 0)" clip-path="url(#gy)"><rect width="137.705" height="137.705" transform="translate(-48.234 48.234) rotate(-45)"/></g></g><g transform="translate(1586.352 1874)"><g transform="translate(0 0)" clip-path="url(#gz)"><rect width="106.319" height="106.319" transform="translate(-37.137 37.137) rotate(-45)"/></g></g><g transform="translate(1598.837 1874)"><g transform="translate(0 0)" clip-path="url(#ha)"><rect width="113.47" height="113.47" transform="translate(-39.665 39.665) rotate(-45)"/></g></g><g transform="translate(1611.323 1874)"><g transform="translate(0 0)" clip-path="url(#hb)"><rect width="138.478" height="138.478" transform="translate(-48.507 48.507) rotate(-45)"/></g></g><g transform="translate(1623.808 1874)"><g transform="translate(0 0)" clip-path="url(#hc)"><rect width="129.65" height="129.65" transform="translate(-45.386 45.386) rotate(-45)"/></g></g><g transform="translate(1636.294 1874)"><g transform="translate(0 0)" clip-path="url(#hd)"><rect width="98.264" height="98.264" transform="matrix(0.707, -0.707, 0.707, 0.707, -34.289, 34.289)"/></g></g><g transform="translate(1648.779 1874)"><g transform="translate(0 0)" clip-path="url(#he)"><rect width="134.552" height="134.552" transform="translate(-47.119 47.119) rotate(-45)"/></g></g><g transform="translate(1661.264 1874)"><g transform="translate(0 0)" clip-path="url(#hf)"><rect width="154.863" height="154.863" transform="translate(-54.3 54.3) rotate(-45)"/></g></g><g transform="translate(1673.749 1874)"><g transform="translate(0 0)" clip-path="url(#hg)"><rect width="125.89" height="125.89" transform="translate(-44.057 44.057) rotate(-45)"/></g></g><g transform="translate(1711.205 1874)"><g transform="translate(0 0)" clip-path="url(#hh)"><rect width="59.189" height="59.189" transform="matrix(0.707, -0.707, 0.707, 0.707, -20.474, 20.474)"/></g></g><g transform="translate(1748.66 1874)"><g transform="translate(0 0)" clip-path="url(#hi)"><rect width="43.984" height="43.984" transform="translate(-15.098 15.098) rotate(-45)"/></g></g><g transform="translate(1773.631 1874)"><g transform="translate(0 0)" clip-path="url(#hj)"><rect width="26.327" height="26.327" transform="translate(-8.856 8.856) rotate(-45)"/></g></g><g transform="translate(1686.234 1874)"><g transform="translate(0 0)" clip-path="url(#hk)"><rect width="139.352" height="139.352" transform="translate(-48.816 48.816) rotate(-45)"/></g></g><g transform="translate(1698.719 1874)"><g transform="translate(0 0)" clip-path="url(#hl)"><rect width="70.367" height="70.367" transform="translate(-24.426 24.426) rotate(-45)"/></g></g><g transform="translate(1374.104 1874)"><g transform="translate(0 0)" clip-path="url(#hm)"><rect width="267.68" height="267.68" transform="translate(-94.187 94.187) rotate(-45)"/></g></g><g transform="translate(1349.133 1874)"><g transform="translate(0 0)" clip-path="url(#hn)"><rect width="270.296" height="270.296" transform="translate(-95.112 95.112) rotate(-45)"/></g></g><g transform="translate(1424.044 1874)"><g transform="translate(0 0)" clip-path="url(#ho)"><rect width="219.207" height="219.207" transform="translate(-77.049 77.049) rotate(-45)"/></g></g><g transform="translate(1399.074 1874)"><g transform="translate(0 0)" clip-path="url(#hp)"><rect width="225.584" height="225.584" transform="translate(-79.304 79.304) rotate(-45)"/></g></g><g transform="translate(1411.559 1874)"><g transform="translate(0 0)" clip-path="url(#hq)"><rect width="216.756" height="216.756" transform="translate(-76.183 76.183) rotate(-45)"/></g></g><g transform="translate(1536.411 1874)"><g transform="translate(0 0)" clip-path="url(#hr)"><rect width="162.312" height="162.312" transform="translate(-56.934 56.934) rotate(-45)"/></g></g><g transform="translate(1498.956 1874)"><g transform="translate(0 0)" clip-path="url(#hs)"><rect width="154.957" height="154.957" transform="translate(-54.333 54.334) rotate(-45)"/></g></g><g transform="translate(1473.985 1874)"><g transform="translate(0 0)" clip-path="url(#ht)"><rect width="122.796" height="122.796" transform="translate(-42.963 42.963) rotate(-45)"/></g></g><g transform="translate(1461.5 1874)"><g transform="translate(0 0)" clip-path="url(#hu)"><rect width="172.984" height="172.984" transform="translate(-60.707 60.707) rotate(-45)"/></g></g><g transform="translate(1511.441 1874)"><g transform="translate(0 0)" clip-path="url(#hv)"><rect width="184.667" height="184.667" transform="translate(-64.838 64.838) rotate(-45)"/></g></g><g transform="translate(1523.926 1874)"><g transform="translate(0 0)" clip-path="url(#hw)"><rect width="106.282" height="106.282" transform="translate(-37.124 37.124) rotate(-45)"/></g></g><g transform="translate(1723.689 1874)"><g transform="translate(0 0)" clip-path="url(#hx)"><rect width="34.585" height="34.585" transform="translate(-11.776 11.775) rotate(-45)"/></g></g></g></svg>